<?xml version="1.0" standalone="no"?>
<!DOCTYPE svg PUBLIC "-//W3C//DTD SVG 1.1//EN" "http://www.w3.org/Graphics/SVG/1.1/DTD/svg11.dtd" >
<!--
2013-9-30: Created.
-->
<svg>
<metadata>
Created by iconfont
</metadata>
<defs>

<font id="iconfont" horiz-adv-x="1024" >
  <font-face
    font-family="iconfont"
    font-weight="500"
    font-stretch="normal"
    units-per-em="1024"
    ascent="896"
    descent="-128"
  />
    <missing-glyph />
    
    <glyph glyph-name="x" unicode="x" horiz-adv-x="1001"
d="M281 543q-27 -1 -53 -1h-83q-18 0 -36.5 -6t-32.5 -18.5t-23 -32t-9 -45.5v-76h912v41q0 16 -0.5 30t-0.5 18q0 13 -5 29t-17 29.5t-31.5 22.5t-49.5 9h-133v-97h-438v97zM955 310v-52q0 -23 0.5 -52t0.5 -58t-10.5 -47.5t-26 -30t-33 -16t-31.5 -4.5q-14 -1 -29.5 -0.5
t-29.5 0.5h-32l-45 128h-439l-44 -128h-29h-34q-20 0 -45 1q-25 0 -41 9.5t-25.5 23t-13.5 29.5t-4 30v167h911zM163 247q-12 0 -21 -8.5t-9 -21.5t9 -21.5t21 -8.5q13 0 22 8.5t9 21.5t-9 21.5t-22 8.5zM316 123q-8 -26 -14 -48q-5 -19 -10.5 -37t-7.5 -25t-3 -15t1 -14.5
t9.5 -10.5t21.5 -4h37h67h81h80h64h36q23 0 34 12t2 38q-5 13 -9.5 30.5t-9.5 34.5q-5 19 -11 39h-368zM336 498v228q0 11 2.5 23t10 21.5t20.5 15.5t34 6h188q31 0 51.5 -14.5t20.5 -52.5v-227h-327z" />
    

    
    <glyph glyph-name="zhaopin" unicode="&#59038;" d="M392.052141 289.628792c-119.148657 0-216.111013 97.31028-216.111013 216.911238 0 119.635751 96.962356 216.980823 216.111013 216.980823 119.147634 0 216.074174-97.345072 216.074174-216.980823C608.127338 386.939071 511.199775 289.628792 392.052141 289.628792L392.052141 289.628792zM392.052141 675.283222c-92.678796 0-168.082136-75.683726-168.082136-168.743192 0-93.027743 75.403341-168.674631 168.082136-168.674631 92.677772 0 168.046321 75.646887 168.046321 168.674631C560.098461 599.599496 484.730936 675.283222 392.052141 675.283222L392.052141 675.283222zM656.156214 289.662561l0 48.201815c66.174142 0 120.054283 54.054103 120.054283 120.505561 0 66.453505-53.880141 120.505561-120.054283 120.505561l0 48.202838c92.677772 0 168.047344-75.68168 168.047344-168.709423C824.203558 365.344241 748.833987 289.662561 656.156214 289.662561L656.156214 289.662561zM728.180598 0.411761l0 48.202838 88.707344 0L799.057855 173.893884l-76.832899 20.688181 11.912307 46.703695 107.897406-28.698622 30.195719-212.175377L728.180598 0.411761 728.180598 0.411761zM100.921527-47.823823l29.638017 251.216555 113.226784 36.883025 14.802124-45.867654-83.971483-27.340695-19.642362-166.654624 474.154044 0-19.643386 166.654624-84.006276 27.340695 14.835893 45.867654 113.193015-36.883025 29.673833-251.216555L100.921527-47.823823 100.921527-47.823823z"  horiz-adv-x="1024" />

    
    <glyph glyph-name="dengpao" unicode="&#58941;" d="M847.809185 576.04708c-17.537422 41.462321-42.638099 78.69327-74.606185 110.661356-31.968086 31.968086-69.200058 57.069787-110.662379 74.606185C619.60474 779.475236 574.007239 788.682945 527.013949 788.682945c-46.992267 0-92.590791-9.208732-135.526673-27.369348-41.461297-17.536398-78.69327-42.638099-110.661356-74.606185-31.968086-31.968086-57.069787-69.200058-74.606185-110.661356-18.160615-42.935881-27.369348-88.534406-27.369348-135.526673 0-62.73174 16.877389-124.234489 48.807612-177.85778 29.937846-50.278103 76.05007-92.388177 126.644375-122.115222L354.302375-92.595516c0-22.427802 18.182105-40.609906 40.609906-40.609906l264.455067 0c22.427802 0 40.609906 18.182105 40.609906 40.609906L699.977255 141.303628c50.105165 29.622668 96.53052 71.324442 126.21254 121.057123 32.047904 53.697993 48.988738 115.304096 48.988738 178.159656C875.17751 487.512674 865.9698 533.110175 847.809185 576.04708zM644.540665-92.273175 409.737942-92.273175c-8.010441 0-14.503319 6.493901-14.503319 14.503319l0 76.498278L659.043984-1.271578l0-76.498278C659.043984-85.779274 652.551106-92.273175 644.540665-92.273175zM672.641677 172.771317c-7.919367-2.825348-13.597693-10.370185-13.597693-19.259646l0-113.849978L547.224246 39.661693 547.224246 318.495236 679.510108 318.495236c11.30344 0 20.466124 9.162684 20.466124 20.466124l0 0c0 11.30344-9.162684 20.466124-20.466124 20.466124L374.767476 359.427484c-11.30344 0-20.466124-9.162684-20.466124-20.466124l0 0c0-11.30344 9.162684-20.466124 20.466124-20.466124l131.523499 0 0-278.833543L395.2336 39.661693 395.2336 153.511671c0 8.882298-5.669116 16.420995-13.57825 19.252483-95.526657 54.721299-161.873738 157.798932-161.873738 267.75523 0 169.407318 137.823995 307.231313 307.231313 307.231313 169.408341 0 307.231313-137.823995 307.231313-307.231313C834.245262 329.833469 769.167081 227.239859 672.641677 172.771317z"  horiz-adv-x="1024" />

    
    <glyph glyph-name="fenxiang" unicode="&#58954;" d="M768 110.999c17.328 0 33.5-3.172 48.5-9.5 15.001-6.343 28.156-15.172 39.5-26.5 11.328-11.344 20.156-24.5 26.5-39.5 6.329-15.001 9.5-31.172 9.5-48.5 0-17.344-3.172-33.5-9.5-48.5-6.343-15.001-15.172-28.172-26.5-39.5-11.344-11.344-24.5-20.172-39.5-26.5-15.001-6.343-31.172-9.5-48.5-9.5-17.344 0-33.5 3.156-48.5 9.5-15.001 6.329-28.172 15.156-39.5 26.5-11.344 11.328-20.172 24.5-26.5 39.5-6.343 15.001-9.5 31.156-9.5 48.5 0 2.656 0 5.156 0 7.5 0 2.329 0.329 4.5 1.001 6.5 0 2.656 0.156 5.156 0.5 7.5 0.329 2.329 0.828 4.5 1.5 6.5l-304 177.001c-6-5.344-12.172-10.172-18.5-14.5-6.343-4.343-13.172-7.844-20.5-10.5-7.344-3.344-15.001-5.671-23.001-7.001-8-1.344-16.343-2-25.001-2-17.344 0-33.844 3.328-49.5 10-15.671 6.656-29.172 15.657-40.5 27.001-12 12-21.344 25.657-28 41.001-6.672 15.328-10 32-10 50 0 17.328 3.328 33.828 10 49.5 6.656 15.657 16 29.156 28 40.5 11.328 12 24.828 21.328 40.5 28 15.657 6.656 32.156 10 49.5 10 8.656 0 17.001-0.844 25.001-2.5 8-1.671 15.657-4.172 23.001-7.5 7.328-2.672 14.156-6.172 20.5-10.5 6.329-4.343 12.5-9.172 18.5-14.5l301.001 176c-0.672 2-1.172 4.329-1.5 7.001-0.343 2.656-0.844 5.001-1.5 7.001 0 2.656-0.172 5.328-0.5 8-0.343 2.656-0.5 5.328-0.5 8 0 17.328 3.328 33.828 10 49.5 6.656 15.657 16 29.156 28 40.5 11.328 11.328 24.828 20.5 40.5 27.5 15.657 7.001 32.156 10.5 49.5 10.5 17.328 0 33.828-3.5 49.5-10.5 15.657-7.001 29.156-16.172 40.5-27.5 12-11.344 21.328-24.844 28-40.5 6.656-15.671 10-32.172 10-49.5 0-18-3.344-34.844-10-50.5-6.672-15.671-16-29.172-28-40.5-11.344-11.344-24.844-20.343-40.5-27.001-15.671-6.672-32.172-10-49.5-10-8.672 0-17.001 0.656-25.001 2-8 1.328-15.671 3.657-23.001 7.001-7.344 2.656-14.172 6.156-20.5 10.5-6.343 4.329-12.5 9.156-18.5 14.5l-300.999-175.001c0.656-2.672 1.156-5.172 1.5-7.5 0.329-2.343 0.828-4.844 1.5-7.5 0-2.672 0.156-5.172 0.5-7.5 0.329-2.343 0.5-4.844 0.5-7.5 0-2.672-0.172-5.344-0.5-8-0.343-2.672-0.5-5.344-0.5-8-0.672-2-1.172-4.343-1.5-7.001-0.343-2.672-0.844-5.001-1.5-7.001l304-177.001c5.328 4.656 11.328 9.001 18 13.001 6.656 4 13.328 7.657 20 11.001 7.328 2.656 14.828 4.656 22.5 6 7.657 1.327 15.5 1.999 23.5 1.999z"  horiz-adv-x="1024" />

    
    <glyph glyph-name="jishu" unicode="&#58960;" d="M883.929336 182.517285c-19.949354-31.295773-37.848003-64.149019-60.247152-93.573165-56.539714-74.232678-130.458237-113.353674-226.227418-110.977557-91.4979 2.269693-183.114504 0.822738-274.65743-0.607844-28.258601-0.435928-37.941124 9.109472-37.260625 37.739533 1.724271 72.810283 1.239224 145.700383 0.233314 218.540342-0.335644 24.190959 8.239662 33.253358 32.66598 32.940227 76.775594-0.997724 153.573701-0.36225 230.364645-0.36225 81.914638 0 99.6997-12.791327 124.244722-93.938486 14.250562 19.921725 27.563776 36.231179 38.404682 54.05308 53.482075 87.97568 117.41006 89.470731 172.479283 3.524267C883.929336 214.076048 883.929336 198.298713 883.929336 182.517285L883.929336 182.517285zM322.560952 12.989217c12.904914 0 23.539112-0.010233 34.178427 0 74.860988 0.030699 149.910265 3.394307 224.555335-0.639566 128.945791-6.962575 205.663056 62.521962 259.941264 168.223353 14.402011 28.05087 6.470365 54.940286-18.052145 69.251224-24.186865 14.131859-51.263547 6.723122-68.795852-19.521612-14.190187-21.262256-26.359344-43.998073-41.759079-64.314795-26.54047-35.005258-61.376882-53.051263-107.030665-51.392484-53.124941 1.935072-106.391099-0.36225-159.538553 1.195222-10.18292 0.302899-27.89942 9.048073-28.6669 15.500019-2.411933 20.307512 16.015765 17.927301 29.319769 18.027585 49.249681 0.348947 98.509594 0.046049 147.760299 0.197498 32.638351 0.097214 45.729507 18.754133 34.053584 49.370431-9.449209 24.75173-29.862121 32.100092-54.480822 32.058137-78.808904-0.115634-157.613714-0.031722-236.417501-0.151449-4.6366-0.01535-9.269108-1.216711-15.0733-2.026146C322.560952 157.508705 322.560952 87.899324 322.560952 12.989217L322.560952 12.989217zM753.756601 667.713826c3.14769-12.921287 8.909927-25.836435 8.93244-38.762839 0.046049-33.207309 9.858532-78.220502-7.440459-96.254228-16.750499-17.461697-62.420655-8.54256-95.412047-8.795317-95.51847-0.730641-191.050244 0.446162-286.558481-0.717338-25.329898-0.313132-36.268018 6.91141-33.994232 33.42732 3.163039 36.935214 4.233418 74.058716 6.200212 111.102401C481.572502 667.713826 617.665063 667.713826 753.756601 667.713826L753.756601 667.713826zM549.631574 629.382822 383.674844 629.382822l0-61.865L549.631574 567.517823 549.631574 629.382822 549.631574 629.382822zM126.553813 283.109308l134.933155 0c1.369184-3.096525 3.493567-5.675256 3.501754-8.252964 0.248663-102.953813 0.331551-205.92093 0.276293-308.884976 0-2.771113-1.708921-5.533017-2.618641-8.299013L126.553813-42.327646 126.553813 283.109308 126.553813 283.109308zM231.952304 220.749028c-15.459087 12.256138-25.335015 25.781176-32.655747 24.512277-10.151197-1.755993-18.381649-14.614859-27.439956-22.720468 8.579399-8.55177 16.08535-21.809725 26.097378-24.094768C205.248106 196.772964 215.853651 209.564291 231.952304 220.749028L231.952304 220.749028zM550.233278 350.28322c-60.144822 0.005117-120.3009 0.711198-180.428326-0.354064-23.280216-0.408299-31.741935 8.217149-30.566156 31.273261 1.453095 28.514427 1.172709 57.199747 0.082888 85.747943-0.794086 20.827351 8.106632 27.596522 28.083615 27.51261 122.258485-0.488117 244.527203-0.600681 366.782617 0.101307 22.039969 0.128937 30.007431-8.240685 29.235858-29.631878-1.016143-28.557406-1.074472-57.215096 0.01842-85.767386 0.845251-21.99392-8.426927-29.479405-29.820166-29.185716C672.503019 350.828642 611.363544 350.28322 550.233278 350.28322L550.233278 350.28322zM549.701159 458.769027 384.206964 458.769027l0-61.745273 165.494195 0L549.701159 458.769027 549.701159 458.769027zM727.79123 319.519566c-14.865569-17.337877-29.934776-34.907021-47.848775-55.807027-37.591153 50.467415-92.673679 49.952692-148.591223 48.936549-61.566194-1.121544-123.164111-0.25685-184.744631-0.25685-0.028653 2.376117-0.051165 4.753257-0.079818 7.127328L727.79123 319.519566 727.79123 319.519566zM727.79123 319.519566"  horiz-adv-x="1024" />

    
    <glyph glyph-name="iconfontjiantou" unicode="&#59047;" d="M621.248 18.752l320 320c24.992051 24.992051 24.992051 65.504051 0 90.496l-320 320c-24.992051 24.992051-65.504051 24.992051-90.496 0-24.992051-24.992051-24.992051-65.504051 0-90.496l210.752-210.752-613.504 0c-35.360051 0-64-28.640051-64-64s28.640051-64 64-64l613.504 0-210.752-210.752c-12.48-12.48-18.752-28.864-18.752-45.248s6.240051-32.768 18.752-45.248c24.992051-24.992051 65.504051-24.992051 90.496 0z"  horiz-adv-x="1024" />

    
    <glyph glyph-name="kefu" unicode="&#59201;" d="M190.591634-64.526793c-17.717453 0-31.994625 14.277171-31.994625 31.994625 0 69.493701 82.050731 119.721821 226.370569 139.847472l0 9.63279c-97.876029 74.998152-97.876029 213.985554-97.876029 298.616496 0 139.675458 82.222745 223.102301 219.834033 223.102301l7.396607 0c137.611288 0 219.834033-83.426844 219.834033-223.102301 0-10.320847-0.172014-20.641693-0.344028-31.306568-0.516042-17.717453-14.965228-31.650596-32.854695-31.134554-17.717453 0.516042-31.650596 15.137242-31.134554 32.854695 0.344028 9.976818 0.344028 19.781623 0.344028 29.586427 0 105.616664-52.464304 159.113052-155.844784 159.113052l-7.396607 0c-103.38048 0-155.844784-53.496388-155.844784-159.113052 0-102.176382 6.364522-206.244919 83.082815-255.096926 9.288762-5.84848 14.793214-15.997312 14.793214-27.006215L448.956828 78.932975c0-16.341341-12.385016-30.102469-28.554342-31.82261-128.494541-13.589115-197.816227-51.260205-197.816227-79.642533C222.586259-50.077608 208.137074-64.526793 190.591634-64.526793zM833.752394-64.526793c-17.717453 0-31.994625 14.277171-31.994625 31.994625 0 28.554342-69.321687 66.053418-197.816227 79.642533-16.341341 1.720141-28.726356 15.48127-28.726356 31.82261l0 54.700487c0 17.717453 14.277171 31.994625 31.994625 31.994625s31.994625-14.277171 31.994625-31.994625l0-26.318159c144.319839-19.953637 226.370569-70.353771 226.370569-139.847472C865.747018-50.077608 851.469847-64.526793 833.752394-64.526793zM612.198219 222.564757c-44.035612 0-76.890307 4.472367-77.750378 4.644381-15.825298 4.816395-25.286074 20.813707-21.845792 37.155048 3.268268 16.169326 18.40551 26.834201 34.918864 25.286074 79.814547-8.77272 201.600538-1.204099 222.930287 43.175542 7.568621 15.825298 26.662187 22.705863 42.659499 14.965228 15.997312-7.568621 22.705863-26.834201 14.965228-42.659499C794.705191 235.63783 687.368386 222.564757 612.198219 222.564757zM896.021502 256.107509c-17.717453 0-31.994625 14.277171-31.994625 31.994625l0 111.809172-42.831514 15.309256c-12.729044 4.472367-21.32975 16.685369-21.32975 30.102469 0 160.489165-129.182597 291.219889-287.951621 291.219889-158.769024 0-287.951621-130.730724-287.951621-291.219889 0-10.320847-4.988409-19.953637-13.417101-25.974131l-18.577524-13.245087 0-118.00168c0-17.717453-14.277171-31.994625-31.994625-31.994625s-31.994625 14.277171-31.994625 31.994625l0 134.34302c0 10.320847 4.988409 19.953637 13.417101 25.974131l18.921552 13.589115C169.089871 650.019822 323.386528 800.360155 511.913993 800.360155c186.463296 0 339.555854-147.072065 351.252814-332.331262l43.51957-15.48127c12.729044-4.472367 21.32975-16.685369 21.32975-30.102469l0-134.34302C928.016126 270.38468 913.738955 256.107509 896.021502 256.107509z"  horiz-adv-x="1024" />

    
    <glyph glyph-name="2" unicode="&#59014;" d="M339.033112 5.135206c-4.975315 0-9.951653 1.898233-13.748119 5.694699L137.504212 198.609663c-3.64604 3.64604-5.694699 8.591679-5.694699 13.748119s2.048659 10.102079 5.694699 13.748119L702.740694 791.341359c12.404518 12.405541 29.299303 19.519566 46.351678 19.519566 16.012695 0 30.91408-6.081509 41.958624-17.125029l129.359206-129.36023c11.680017-11.68104 17.745153-27.457352 17.076934-44.423769-0.645706-16.390295-7.560186-31.975249-19.47147-43.886533L352.78123 10.829905C348.984764 7.033439 344.008426 5.135206 339.033112 5.135206zM178.748568 212.356758l160.28352-160.28352 551.488363 551.488363c4.971222 4.971222 7.852852 11.335163 8.111748 17.919115 0.23536 6.005784-1.794879 11.474332-5.719258 15.398712L763.554758 766.238634c-3.698229 3.699252-8.836249 5.736655-14.462387 5.736655-6.816243 0-13.688767-2.963495-18.856463-8.130168L178.748568 212.356758zM114.369306-31.728376c-9.353019 0-17.59882 6.767124-19.163455 16.298198-1.738597 10.595312 5.441942 20.595061 16.038278 22.333658l224.64027 36.860513c10.604522 1.736551 20.596084-5.440919 22.334681-16.038278 1.738597-10.595312-5.441942-20.595061-16.038278-22.333658L117.540532-31.468456C116.47527-31.643442 115.415125-31.728376 114.369306-31.728376zM114.369306-31.728376c-9.353019 0-17.59882 6.767124-19.163455 16.298198-1.738597 10.595312 5.441942 20.595061 16.038278 22.333658l224.64027 36.860513c10.604522 1.736551 20.596084-5.440919 22.334681-16.038278 1.738597-10.595312-5.441942-20.595061-16.038278-22.333658L117.540532-31.468456C116.47527-31.643442 115.415125-31.728376 114.369306-31.728376zM114.416378-31.728376c-1.045819 0-2.104941 0.084934-3.172249 0.25992-10.596336 1.738597-17.776875 11.738345-16.038278 22.333658l36.860513 224.639247c1.738597 10.596336 11.737322 17.775852 22.334681 16.038278 10.596336-1.738597 17.776875-11.738345 16.038278-22.333658l-36.860513-224.639247C132.015198-24.961252 123.768373-31.728376 114.416378-31.728376zM114.416378-31.728376c-1.045819 0-2.104941 0.084934-3.172249 0.25992-10.596336 1.738597-17.776875 11.738345-16.038278 22.333658l36.860513 224.639247c1.738597 10.596336 11.737322 17.775852 22.334681 16.038278 10.596336-1.738597 17.776875-11.738345 16.038278-22.333658l-36.860513-224.639247C132.015198-24.961252 123.768373-31.728376 114.416378-31.728376zM827.181891 493.285009c-4.976338 0-9.951653 1.89721-13.749142 5.694699L625.654015 686.759465c-7.592932 7.592932-7.592932 19.903306 0.001023 27.496238 7.591909 7.591909 19.902282 7.592932 27.496238 0l187.778734-187.779757c7.592932-7.592932 7.592932-19.903306-0.001023-27.496238C837.133543 495.183242 832.157205 493.285009 827.181891 493.285009zM663.284053 20.852166c-4.975315 0-9.951653 1.898233-13.748119 5.694699-7.593955 7.592932-7.593955 19.902282 0 27.495214L752.809019 157.315164c7.592932 7.592932 19.902282 7.592932 27.495214 0s7.592932-19.902282 0-27.495214L677.031149 26.546865C673.234683 22.750399 668.259368 20.852166 663.284053 20.852166zM593.39224 90.74398c-4.976338 0-9.951653 1.89721-13.749142 5.694699-7.592932 7.592932-7.591909 19.903306 0.001023 27.496238l103.274108 103.273085c7.591909 7.590885 19.902282 7.591909 27.496238-0.001023 7.592932-7.592932 7.591909-19.903306-0.001023-27.496238L607.139336 96.437655C603.344916 92.642213 598.367555 90.74398 593.39224 90.74398zM757.169327-55.921381c-16.22759 0-31.485085 6.319939-42.958394 17.795295L495.269455 180.814368c-7.592932 7.592932-7.592932 19.902282 0 27.495214l194.029088 194.029088c3.64604 3.64604 8.591679 5.694699 13.748119 5.694699s10.102079-2.048659 13.749142-5.694699L935.736259 183.397193c11.474332-11.473309 17.794271-26.729781 17.794271-42.957371 0-16.226566-6.319939-31.484062-17.795295-42.957371l-135.608537-135.608537C788.652366-49.602466 773.395894-55.921381 757.169327-55.921381zM536.513812 194.562487 741.706147-10.631896c4.131087-4.130064 9.621125-6.404873 15.462157-6.404873 5.840008 0 11.33107 2.27481 15.461133 6.404873l135.609561 135.608537c4.130064 4.131087 6.404873 9.622148 6.404873 15.462157 0 5.841032-2.27481 11.33107-6.404873 15.461133L703.045639 361.094314 536.513812 194.562487zM166.970314 517.165906c-4.975315 0-9.951653 1.898233-13.748119 5.694699-7.592932 7.592932-7.592932 19.903306 0 27.496238L256.49528 653.629927c7.592932 7.592932 19.903306 7.592932 27.496238 0s7.592932-19.903306 0-27.496238L180.718433 522.860605C176.921967 519.064139 171.945629 517.165906 166.970314 517.165906zM236.862127 447.274092c-4.975315 0-9.951653 1.898233-13.748119 5.694699-7.592932 7.592932-7.592932 19.903306 0 27.496238L326.387094 583.739137c7.592932 7.592932 19.903306 7.592932 27.496238 0s7.592932-19.903306 0-27.496238L250.610246 452.968791C246.81378 449.172325 241.837442 447.274092 236.862127 447.274092zM321.236793 362.898403c-5.15644 0-10.102079 2.048659-13.748119 5.694699L88.546174 587.536626c-11.474332 11.474332-17.793248 26.730805-17.793248 42.957371 0 16.22759 6.318916 31.484062 17.793248 42.958394l135.609561 135.608537c11.473309 11.473309 26.730805 17.793248 42.957371 17.793248 0.001023 0 0 0 0 0 16.22759 0 31.484062-6.318916 42.958394-17.793248l218.941478-218.942501c7.592932-7.592932 7.592932-19.903306 0-27.496238l-194.028065-194.029088C331.338872 364.947062 326.393233 362.898403 321.236793 362.898403zM267.114129 787.968541c-5.841032 0-11.332093-2.27481-15.461133-6.40385l-135.609561-135.608537c-4.130064-4.130064-6.404873-9.621125-6.40385-15.462157 0-5.841032 2.27481-11.332093 6.40385-15.461133l205.194382-205.195406 166.532851 166.532851L282.576285 781.564691C278.446221 785.694755 272.95516 787.968541 267.114129 787.968541z"  horiz-adv-x="1024" />

    
    <glyph glyph-name="pinpai" unicode="&#58950;" d="M828.046073 700.90565C743.525074 785.428695 631.146611 831.976848 511.61626 831.976848S279.70847 785.428695 195.186448 700.90565C110.665449 616.384651 64.11832 504.008234 64.11832 384.476861c0-87.084381 25.040303-171.510212 72.41324-244.150626 9.391904-14.398942 28.680203-18.456351 43.078121-9.069563 14.400988 9.390881 18.461467 28.67918 9.070586 43.080168-40.759309 62.497403-62.303998 135.164423-62.303998 210.140021 0 212.421994 172.817997 385.241015 385.239991 385.241015 212.423017 0 385.241015-172.819021 385.241015-385.241015S724.038254-0.763131 511.61626-0.763131c-70.340021 0-139.15634 19.127639-199.007473 55.310723-14.712073 8.896624-33.849946 4.179183-42.744523-10.532891-8.894577-14.713097-4.179183-33.848922 10.533914-42.7435 69.568449-42.060955 149.523455-64.293305 231.219105-64.293305 119.531374 0 231.908814 46.548152 316.429813 131.070174 84.522022 84.520999 131.069151 196.897416 131.069151 316.428789S912.567072 616.384651 828.046073 700.90565zM670.50706 418.1948c18.943444 20.070104 28.417213 46.90017 28.417213 80.494289 0 16.383132-2.817162 31.899524-8.449439 46.544059-5.634324 14.642488-13.876032 27.497261-24.731264 38.557154-10.858302 11.060917-23.348778 19.557428-37.480636 25.50079-11.6749 5.322216-24.785499 8.988722-39.324634 10.731412-14.545274 1.736551-32.057113 2.742461-52.53654 2.742461l-148.389632 0c-19.662829 0-34.925441-4.538363-43.728944-13.341866-8.80862-8.809643-14.234189-23.175839-14.234189-42.837644l0-346.550831c0-18.231223 5.01727-32.057113 13.005198-41.476647 7.987928-9.417487 19.761066-14.131859 34.30634-14.131859 13.517875 0 24.131607 4.507664 32.531927 13.517875 8.394181 9.010211 12.253068 23.042809 12.253068 42.091654L422.145529 365.914086l33.147958 0c16.176424 0 29.595039-2.740414 40.246633-7.04137 10.645454-4.300956 21.145599-12.583596 31.490202-24.257473 10.339486-11.6749 22.067598-28.825512 35.178197-51.14689l36.560684-60.905138c8.600889-14.338566 15.408945-25.227568 20.430308-32.602535 5.016247-7.372921 11.006681-13.487176 17.972327-18.296715 6.959505-4.811586 15.562441-7.229658 25.806759-7.229658 8.600889 0 16.176424 1.685385 22.734794 5.064342 6.55223 3.37998 11.721973 7.986905 15.514345 13.823843 3.78828 5.836939 5.684466 11.720949 5.684466 17.665335 0 5.731538-3.226484 16.228613-9.679453 31.489178-6.450922 15.256472-15.465227 32.358989-27.03575 51.305503-11.573593 18.943444-24.731264 36.815487-39.479153 53.612035-14.745842 16.790408-30.213116 29.493731-46.38954 38.09462C622.834294 383.88539 651.560546 398.118556 670.50706 418.1948zM594.621742 455.214948c-7.887644-9.115612-19.307741-14.951527-34.256198-18.738783-14.95255-3.791349-33.386388-5.069459-55.30049-5.069459l-82.918501 0 0 122.796744 85.376483 0c31.337729 0 52.329832-2.364861 62.981427-6.865361 11.261485-4.714372 20.070104-11.882632 26.420743-21.406542 6.345522-9.524934 9.522887-20.562315 9.522887-33.054837C606.449115 476.901877 602.503247 464.326467 594.621742 455.214948z"  horiz-adv-x="1024" />

    
    <glyph glyph-name="iconfontxiangxia1copy19" unicode="&#58885;" d="M273.876092 886.5185 775.427114 393.481461 273.876092-99.555573 219.474055-46.07522 666.623038 393.481461 219.474055 833.039953 273.876092 886.5185Z"  horiz-adv-x="1024" />

    
    <glyph glyph-name="anzhuang" unicode="&#58975;" d="M766.527488-26.246144 522.43456 225.471488l-2.098176-18.609152L303.52384-15.152128l-7.986176-0.211968c-1.307648-0.034816-2.599936-0.052224-3.876864-0.052224-49.634304 0-77.154304 25.795584-83.585024 32.64512-44.545024 38.747136-28.148736 98.267136-27.42272 100.800512l1.422336 4.970496L403.16928 341.101568l13.304832-1.941504-72.594432 72.676352c-14.513152-5.226496-39.530496-12.291072-68.687872-12.29312-0.008192 0-0.009216 0-0.017408 0-38.975488 0.004096-73.322496 12.233728-102.084608 36.352-36.31104 30.444544-62.435328 79.392768-77.646848 145.483776l-0.265216 1.150976-0.125952 1.174528c-0.345088 3.226624-1.514496 19.936256 9.341952 32.014336 6.280192 6.986752 15.285248 10.83392 25.355264 10.83392 2.5344 0 5.185536-0.237568 7.882752-0.708608l8.896512-1.552384 4.629504-7.753728c10.278912-17.081344 44.952576-61.485056 81.258496-61.48096 6.172672 0 12.12416 1.216512 18.184192 3.714048 1.18784 0.551936 15.581184 7.387136 30.652416 21.755904 20.279296 19.335168 32.407552 42.832896 36.04992 69.84192l0.339968 2.518016c-1.352704 4.87424-9.915392 25.700352-62.532608 68.534272l-4.972544 4.047872-1.637376 6.20032c-0.831488 3.147776-4.456448 19.531776 5.844992 32.90624 4.6848 6.081536 13.700096 13.33248 30.041088 13.33248 5.912576 0 12.309504-0.928768 19.556352-2.8416l0.741376-0.210944c4.666368-1.429504 114.727936-35.972096 153.423872-120.767488 17.24928-37.797888 17.647616-79.091712 1.227776-122.908672l87.491584-87.506944 66.121728 65.703936c7.707648 19.234816 8.128512 34.53952 1.23904 45.53216-13.277184 21.184512-52.455424 27.454464-65.13152 27.979776l-7.606272 0.315392-69.285888 68.410368 130.008064 128.252928 76.499968-75.50464-0.659456-9.063424c-1.07008-14.72512 1.634304-25.682944 8.039424-32.570368 9.259008-9.957376 25.40544-11.030528 31.917056-11.030528 2.029568 0 3.371008 0.103424 3.67104 0.129024l7.678976 0.934912 6.037504-4.634624c61.40416-44.993536 105.445376-91.09504 130.899968-137.024512 17.308672-31.232 20.3008-52.764672 20.815872-59.551744 15.982592-88.515584-27.149312-187.902976-29.000704-192.109568l-11.507712-26.134528-66.992128 65.999872 0.267264 8.602624c0.991232 31.854592-1.640448 76.553216-19.80416 108.602368-9.551872 16.851968-19.15392 22.711296-20.868096 23.65952l-3.055616 1.134592-1.656832 1.870848c-1.188864 1.016832-2.098176 1.618944-2.724864 1.9712l-0.548864-0.83968-95.900672-94.010368 261.869568-247.689216L766.527488-26.246144zM236.915712 44.04736c1.573888-1.73568 17.497088-18.402304 49.870848-19.95264l195.917824 200.617984 3.953664 35.060736 214.237184 210.01216c5.74464 7.432192 16.463872 15.195136 30.183424 15.195136 9.3184 0 18.40128-3.449856 27.030528-10.262528 6.382592-3.501056 20.360192-12.992512 33.506304-34.240512 19.023872-30.746624 28.357632-72.807424 27.783168-125.109248l12.750848-12.563456c10.923008 33.39264 25.536512 91.602944 15.971328 142.743552l-0.36864 1.974272 0.031744 1.171456c-0.161792 1.96608-2.011136 19.272704-17.983488 46.838784-27.394048 47.276032-75.097088 88.958976-112.265216 116.768768-14.600192 0.06144-41.42592 3.267584-60.332032 23.59808-12.419072 13.353984-18.72896 31.106048-18.812928 52.867072l-36.225024 35.753984-73.920512-72.921088 30.409728-30.024704c6.832128-0.764928 17.368064-2.36032 28.91264-5.624832 28.1088-7.948288 48.294912-21.446656 60.000256-40.122368 14.59712-23.29088 14.63296-52.061184 0.10752-85.511168l-1.504256-3.464192L452.224 294.130688l-35.345408 5.158912L217.572352 102.679552c-1.895424-10.898432-4.115456-38.43072 16.953344-56.235008l1.549312-1.309696L236.915712 44.04736zM557.329408 246.07744l209.818624-216.374272 73.300992 72.307712L621.355008 309.240832 557.329408 246.07744zM352.562176 458.889216l83.904512-84.000768 62.148608 61.285376-85.951488 85.9648 5.479424 12.35456c16.73216 37.732352 18.139136 72.423424 4.18304 103.108608-26.223616 57.658368-98.893824 88.516608-122.0352 97.088512 24.992768-22.332416 41.884672-42.021888 50.343936-58.708992 7.899136-15.583232 7.483392-26.446848 5.38112-33.185792-12.778496-85.653504-86.575104-118.787072-89.73824-120.167424l-0.294912-0.125952c-10.878976-4.538368-22.170624-6.84032-33.5616-6.841344-28.166144-0.003072-57.208832 14.307328-83.990528 41.383936-2.909184 2.940928-5.643264 5.879808-8.189952 8.7552 13.4144-45.079552 32.924672-78.560256 58.160128-99.719168 21.4784-18.009088 47.309824-27.14112 76.778496-27.144192 0.002048 0 0.01024 0 0.012288 0 35.679232 0 64.44032 13.612032 64.719872 13.749248L352.562176 458.889216z"  horiz-adv-x="1024" />

    
    <glyph glyph-name="baoxiu" unicode="&#58974;" d="M980.202 483.239l-131.385 113.302 0 177.187c-68.636 83.573-120.533-4.822-120.533-4.822l0-65.089-137.412 119.331c-80.689 81.16-157.901 0-157.901 0s-264.374-230.201-353.168-306.163c-102.384-87.59-8.439-130.779-8.439-130.779l96.48-47.203 1.158-164.341-81.965-74.723c-57.86-84.385 15.667-153.082 15.667-153.082 103.659-103.669 201.293 13.252 201.293 13.252l501.429 0c42.188 6.031 49.418 61.476 49.418 61.476l3.618 309.776 115.717 54.24c50.622 47.009 6.025 97.639 6.025 97.639zM769.963 755.151l40.75 0 0-122.528-40.75 41.576 0 80.952zM249.184-26.914c0 0-47.612-57.251-104.865 0 0 0-47.01 42.193 0 94.02l229.018 229.018c0 0-20.428 194.662 167.543 186.478l3.618-34.605-67.499-63.881 84.373-89.2 77.146 69.92 33.744-7.236c0 0 15.735-186.821-195.262-162.721l-227.814-221.793zM927.233 412.524l-115.712-51.833-8.435-302.546c-2.413-57.853-37.366-59.058-37.366-59.058l-413.438 0 141.025 141.03c289.867-2.833 218.191 251.618 218.191 251.618l-89.296 11.072-56.355-52.217-29.454 31.97 54.88 51.762-10.199 97.252c-281.032 28.268-263.747-214.28-263.747-214.28l-101.252-100.042 1.207 157.904-90.404 40.979c-51.827 21.698-6.026 66.297-6.026 66.297l327.857 291.696c66.466 63.884 127.768 2.408 127.768 2.408l350.755-317.007c40.987-27.725 0-47.007 0-47.007z"  horiz-adv-x="1031" />

    
    <glyph glyph-name="houqiweihuweihuweihuguanli" unicode="&#59021;" d="M611.84 727.04c-11.434667-24.234667-17.408-51.029333-17.408-78.677333 0-49.322667 19.114667-95.402667 53.930667-130.218667 34.645333-34.645333 80.896-53.930667 130.218667-53.930667 27.648 0 54.442667 5.973333 78.677333 17.578667-32.768-33.109333-76.8-51.029333-123.050667-51.029333-12.117333 0-24.234667 1.365333-36.010667 3.754667-18.944 4.096-39.082667-1.877333-52.906667-15.701333L309.76 83.456c-1.706667 52.394667-44.032 94.549333-96.426667 96.426667l335.189333 335.36c13.824 13.824 19.797333 33.621333 15.701333 52.906667-12.117333 57.856 5.461333 117.418667 47.445333 158.890667L611.84 727.04zM670.378667 221.354667l184.32-184.32c10.24-10.24 10.24-26.965333 0-37.034667-10.069333-10.069333-26.965333-10.069333-37.034667 0l-184.32 184.32L670.378667 221.354667zM710.997333 833.024c-4.266667 0-8.704-0.512-13.141333-1.024-130.56-20.48-217.429333-145.92-190.122667-275.968L120.832 168.96c-49.322667-49.152-49.322667-129.194667 0-178.176 48.981333-48.981333 129.365333-48.981333 178.176 0L686.08 377.856c130.048-27.136 255.658667 59.392 275.797333 190.122667 4.949333 31.402667-7.68 49.322667-24.234667 49.322667-7.68 0-16.042667-3.754667-24.234667-11.776l-46.08-46.08c-48.981333-48.981333-129.365333-48.981333-178.346667 0-49.322667 49.322667-49.322667 129.194667 0 178.346667 0 0 20.650667 20.650667 46.08 46.08C758.101333 806.741333 746.666667 833.194667 710.997333 833.024L710.997333 833.024zM180.224 50.176c-26.624 26.624-7.168 71.68 29.696 71.68s56.661333-45.056 29.866667-71.68C223.232 33.792 196.608 33.792 180.224 50.176zM120.490667 793.770667 60.928 734.378667l74.24-104.106667 62.293333-32.768 145.749333-145.749333 59.392 59.392L257.194667 657.066667l-32.768 62.293333L120.490667 793.770667 120.490667 793.770667zM655.530667 288.426667l-89.088-89.088c-8.192-8.192-8.192-21.504 0-29.696l210.432-210.432c32.768-32.597333 86.186667-32.768 118.954667 0 32.768 32.768 32.768 86.186667 0 118.954667L685.397333 288.597333C677.034667 296.789333 663.893333 296.789333 655.530667 288.426667L655.530667 288.426667z"  horiz-adv-x="1024" />

    
    <glyph glyph-name="huodong" unicode="&#59174;" d="M871.241362 665.447067l-31.370475 0c15.906272 26.974351 22.887266 52.702316 20.655436 76.565816-1.849114 19.96982-11.314697 48.53746-46.001707 71.303976-28.761044 18.920932-65.74333 23.556509-106.773815 13.307074-66.536392-16.70445-145.279804-74.135464-197.060121-143.544277C458.882734 752.483352 380.196627 809.920506 313.660234 826.623933c-41.064254 10.31595-78.075193 5.646604-106.830097-13.307074-34.659381-22.76754-44.12394-51.334155-45.974078-71.303976-2.231831-23.863501 4.687766-49.591465 20.655436-76.565816l-31.370475 0c-47.498804 0-86.159312-38.685068-86.159312-86.221734L63.981708 468.162842c0-37.604456 24.805966-70.835302 60.685127-81.996502-3.408633-9.435906-5.194302-19.193131-5.194302-29.076222l0-333.192591c0-47.504944 38.700417-86.209454 86.210477-86.209454l610.114598 0c47.504944 0 86.142939 38.699394 86.142939 86.209454L901.940548 357.090117c0 9.945513-1.719154 19.735483-5.127787 29.109991 35.830043 11.223622 60.57154 44.454468 60.57154 81.96785L957.384301 579.194634C957.383278 626.729254 918.745283 665.447067 871.241362 665.447067M815.796586-0.909463 541.364283-0.909463 541.364283 381.925758l274.432303 0c13.678534 0 24.772196-11.161201 24.772196-24.835641l0-333.192591C840.568782 10.218992 829.47512-0.909463 815.796586-0.909463M575.1559 665.447067c43.645033 50.344618 100.933807 89.907683 147.455353 101.57849 24.160259 6.054903 43.930535 4.394077 58.247612-5.04183 15.208377-9.990538 17.916045-18.902512 18.520819-25.632797 2.420119-24.672936-24.039509-57.939597-36.537148-70.90284L575.1559 665.44809 575.1559 665.447067zM895.978766 579.194634 895.978766 468.162842c0-13.678534-11.05887-24.798802-24.737404-24.798802L541.364283 443.364039l0 160.64884 329.877079 0C884.91478 604.012879 895.978766 592.869075 895.978766 579.194634M479.987401 381.925758l0-382.834198L205.681988-0.90844c-13.713326 0-24.805966 11.128455-24.805966 24.805966L180.876022 357.090117c0 13.674441 11.092639 24.835641 24.805966 24.835641L479.987401 381.925758 479.987401 381.925758zM222.003721 736.349907c0.604774 6.730285 3.345188 15.642259 18.49012 25.632797 14.22191 9.43693 33.985022 11.17962 58.282405 5.04183 46.260603-11.607362 103.485933-51.170426 147.228179-101.57849L258.477424 665.446044C247.282454 676.784276 219.547787 711.087547 222.003721 736.349907M125.339148 579.194634c0 13.674441 11.093662 24.818245 24.800849 24.818245l329.847403 0 0-160.64884L150.139997 443.364039c-13.707187 0-24.800849 11.120268-24.800849 24.798802L125.339148 579.194634 125.339148 579.194634zM125.339148 579.194634"  horiz-adv-x="1024" />

    
    <glyph glyph-name="shouhou" unicode="&#58888;" d="M111.13617-60.213127c9.149381 0 16.805758 7.364735 17.407462 16.758686 7.946996 111.037932 44.98761 172.127266 136.673799 225.456868l2.90312 1.681292 2.583848-2.14178c62.113663-51.461045 150.069901-80.976266 241.304811-80.976266 91.225701 0 179.172729 29.516244 241.286392 80.976266l2.593058 2.14178 2.892887-1.690502c91.695399-53.385884 128.736013-114.485451 136.673799-225.409796 0.347924-5.03569 2.583848-9.562796 6.303566-12.757558 3.476171-2.987031 7.899924-4.490268 12.391215-4.058432 9.694803 0.714268 16.965393 9.459442 16.252149 19.511379-9.215896 127.983883-56.495712 201.624067-168.623465 262.629489l0 0-10.69969 5.805216-9.074679-8.407484c-56.589856-52.259224-140.42217-82.234933-229.994208-82.234933s-173.404352 29.976732-229.994208 82.234933l-9.074679 8.407484-10.708899-5.805216c-112.211664-61.183478-159.491481-134.785799-168.632675-262.526135-0.694825-9.948583 6.594185-18.703991 16.252149-19.50217L111.13617-60.213127zM832.936453 613.724055c-52.879348 133.217071-178.627307 219.294518-320.364425 219.294518-141.577482 0-267.307022-85.936231-320.289724-218.928175-13.677511-34.354436-30.305213-62.122873-50.80306-84.903715-17.172101-19.070334-26.632567-43.982724-26.632567-70.154803 0.084934-56.421011 42.113143-102.629425 94.635357-105.307418L209.482035 492.682281c0 79.849606 27.824719 153.432485 78.364789 207.185736 58.722426 62.460564 138.53417 96.862072 224.724181 96.862072 56.421011 0 111.422695-15.171538 159.068855-43.87016 88.079034-53.057403 142.80852-153.714917 142.80852-262.694981l0-134.165676c53.752228 2.498914 95.189989 46.857191 95.189989 103.042841 0 25.635867-9.159614 50.173726-25.786293 69.083401C863.372649 551.413917 846.23841 580.215894 832.936453 613.724055zM511.914042 192.843332c140.957359 0 255.630075 118.101815 255.630075 263.268032 0.047072 70.211085-26.566052 136.307456-74.945923 186.105628-48.342008 49.760311-112.512517 77.162404-180.685175 77.162404-140.957359 0-255.630075-118.101815-255.630075-263.268032S370.956683 192.843332 511.914042 192.843332zM511.914042 683.099099c121.634268 0 220.591047-101.831246 220.591047-226.997967 0.056282-60.516282-22.884197-117.481691-64.583924-160.403247-41.71917-42.949184-97.125061-66.594721-156.007123-66.594721-121.634268 0-220.591047 101.831246-220.591047 226.997967S390.279774 683.099099 511.914042 683.099099z"  horiz-adv-x="1024" />

    
    <glyph glyph-name="lixiang" unicode="&#58927;" d="M413.291884-86.679919l44.536332 0c0 0 0.564865 197.360973 0 212.302267-0.564865 14.94027 5.89629 31.312146 12.407588 38.896892 6.509251 7.586792 494.409366 576.161299 494.409366 576.161299s-134.656863-688.150906-136.453788-697.275727c-1.384533-7.048533-5.989411-10.050913-12.374842-7.983835-7.715729 2.494821-289.209868 90.201371-289.209868 90.201371L512.300852 82.209606c0 0 267.275299-83.943854 293.927309-91.889827 29.315676-8.739035 59.761082 10.145058 65.959248 43.409672 5.116531 27.438932 144.535861 737.025033 146.580426 749.792824 2.043542 12.764722 7.693216 30.816866-13.791098 41.188074-15.902178 7.671727-35.07075-8.865925-35.07075-8.865925l-6.009877 11.653411c0 0-903.612119-482.483756-935.838078-499.866658-32.226982-17.377786-30.800493-53.989635-3.761674-62.764486 27.040866-8.773827 299.92286-97.339956 299.92286-97.339956l13.907755 42.846854L68.27499 297.190889 911.656329 748.573299c0 0-451.008904-525.422707-469.613634-546.846646-18.59859-21.422915-29.069059-43.692105-29.030174-71.876004C413.050384 101.659587 413.291884-86.679919 413.291884-86.679919L413.291884-86.679919zM413.291884-86.679919"  horiz-adv-x="1037" />

    
    <glyph glyph-name="fangzi2" unicode="&#58914;" d="M978.098577 511.47223l-101.302197 231.767598c-25.985838 47.183626-84.418668 44.00012-84.418668 44.00012L526.343683 787.239947l-266.448468 0c0 0-58.432831 4.206812-84.418668-42.976814L74.175373 512.495536c0 0-19.953448-213.349109 181.115987-224.092801 0 0 89.023546-1.534959 132.00036 49.116651 0 0 41.836851-55.035454 138.638547-53.219085l0-1.01819c97.099479-1.983167 139.052986 53.214992 139.052986 53.214992 42.976814-50.65161 132.00036-49.116651 132.00036-49.116651C998.052025 298.124144 978.098577 511.47223 978.098577 511.47223zM794.202267 317.343881c-54.024427 0-101.716636 26.878161-130.264832 67.88818-27.54638-46.199205-78.254272-77.18594-136.26243-77.18594-59.516512 0-111.347994 32.617885-138.363278 80.818677-28.423353-41.850154-74.575486-69.37709-129.253806-69.37709-87.388303 0-158.231791 70.309322-158.231791 157.040662 0 29.004591 7.931646 56.166207 21.747303 79.483262l71.597665 167.635975c17.546631 33.498952 60.617589 33.498952 60.617589 33.498952L538.201755 757.146559l0.00307-0.569982 259.037684 0c0 0 43.069935-1.023306 60.617589-34.522258l69.599148-162.956396c15.805988-24.440645 24.973788-53.513798 24.973788-84.71338C952.433034 387.653203 881.59057 317.343881 794.202267 317.343881zM886.432855 80.170157 886.432855 269.491013c-8.009418-4.073782-16.687054-7.6574-26.056446-10.682293l0-155.571195c0 0 5.692652-61.195757-59.772338-71.157643L526.46034 32.079882l-2.824325 0L249.494331 32.079882c-65.464991 9.961886-59.772338 71.157643-59.772338 71.157643L189.721992 264.158564c-9.66922 3.875261-18.522865 8.383948-26.595728 13.429871l0-197.417255c0 0-6.139837-66.00018 64.465221-76.743872l295.665907 0 3.045359 0 295.665907 0C892.571668 14.171 886.432855 80.170157 886.432855 80.170157zM816.262702 530.503679c0-6.753821-5.525853-12.279674-12.279674-12.279674l-536.212448 0c-6.753821 0-12.279674 5.525853-12.279674 12.279674l0 8.18645c0 6.753821 5.525853 12.279674 12.279674 12.279674l536.212448 0c6.753821 0 12.279674-5.525853 12.279674-12.279674L816.262702 530.503679z"  horiz-adv-x="1024" />

    
    <glyph glyph-name="jiantou1-copy-copy" unicode="&#59302;" d="M473.968 817.557v-733.558l-180.328 187.319c-4.796 4.795-12.57 4.795-17.367 0l-37.627-37.627c-4.795-4.796-4.795-12.57 0-17.367l227.011-235.807c0.229-0.272 0.465-0.541 0.721-0.797l1.259-1.259 35.009-36.367c2.568-2.567 5.99-3.746 9.352-3.564 3.369-0.188 6.8 0.991 9.372 3.562l36.267 37.627c0.241 0.243 0.463 0.496 0.68 0.752l227.050 235.852c4.797 4.796 4.797 12.57 0 17.367l-37.627 37.627c-4.795 4.795-12.569 4.795-17.367 0l-178.637-185.562v731.8c0 6.783-5.498 12.28-12.28 12.28h-53.213c-6.781 0-12.28-5.497-12.28-12.28z"  horiz-adv-x="1024" />

    
    <glyph glyph-name="group" unicode="&#58959;" d="M882.355249 196.347662 911.132366 167.701862C924.922821 153.997304 924.922821 131.80116 913.175821 119.95033L807.490202 30.059665C793.775719 16.31541 771.418703 16.346135 757.626955 30.059665L483.523955 302.896321C442.268476 343.88327 375.15879 343.988246 333.938076 302.998737L323.321615 292.447312 255.651813 359.695045C241.860069 373.400888 219.541679 373.363762 205.788565 359.695045L184.45392 338.515383C184.419154 338.483377 31.127492 186.24943 31.127492 186.24943-10.095797 145.267607-10.133138 78.543472 31.095302 37.488672L122.693025-55.021287C143.284711-75.494279 170.403365-85.771737 197.485964-85.771737 224.567276-85.771737 251.648589-75.531404 272.312382-55.058412L421.366472 103.99261C421.403813 104.024615 442.771937 125.273407 442.771937 125.273407 449.400626 131.86517 453.107696 140.734409 453.107696 150.059401 453.107696 159.351108 449.399339 168.290756 442.809278 174.844114L373.226066 242.733226 383.803899 253.250087C397.5583 266.994335 419.914032 266.957209 433.663283 253.214242L437.192661 249.747451 707.803624-19.658262C728.682451-40.383457 756.150053-50.61867 783.339527-50.61867 809.824667-50.61867 836.023955-40.86865 855.384673-21.520962L961.069006 68.378669C1002.329635 109.364339 1002.36054 176.117913 961.106348 217.172713L932.329237 245.782668 882.355249 196.347662ZM212.335131 266.076685C224.619705 278.416015 244.649512 278.340243 257.077856 265.902537L352.116839 170.791974C364.54299 158.356467 364.908068 137.822178 352.903964 124.896889L246.441366 10.264454C222.549312-15.461059 182.323763-16.498034 156.541483 7.999227L99.817912 61.895626C74.059632 86.370084 73.284476 126.406232 98.018855 151.25086L212.335131 266.076685ZM838.91675 337.151434C829.74758 337.151434 820.6106 340.660468 813.733395 347.668294L473.893563 683.731313C460.279512 697.583099 460.490682 719.735715 474.421489 733.309697 488.314954 746.838873 510.671973 746.666045 524.284736 732.778414L864.091094 396.75252C877.706432 382.908415 877.52745 360.749398 863.597934 347.181817 856.720728 340.518365 847.836124 337.151434 838.91675 337.151434ZM534.371207 820.776351C530.2125 824.914949 524.794176 828.075923 518.429646 829.985866 502.645447 834.722573 485.104103 830.788156 475.251242 820.992326L332.248046 677.551552C316.1708 661.564483 316.157578 635.537699 332.20417 619.556671L745.04026 208.571561C753.034412 200.622975 763.362921 196.371169 774.784159 196.371169 786.13205 196.371169 796.455977 200.622322 803.496006 207.605892L836.575053 241.845603 886.460436 291.192789 947.135503 351.447139C955.15073 359.473338 959.38543 369.642841 959.38543 380.695479 959.38543 391.740119 955.17453 401.861889 947.294115 409.710044L534.371207 820.776351ZM992.454454 455.056015C1012.379152 435.212883 1023.38319 408.779272 1023.38319 380.695479 1023.38319 352.577122 1012.34181 326.174234 992.419691 306.224846L931.556266 245.782668 881.582284 196.347662 849.538471 163.155864C829.582869 143.307611 803.028195 132.373409 774.784159 132.373409 746.465439 132.373409 719.910765 143.308898 699.916533 163.189149L287.052711 574.201859C245.861612 615.224653 245.901529 681.942382 287.122243 722.931892L429.92878 866.176258C457.815651 893.90417 500.188106 902.277311 536.824426 891.283055 552.673803 886.526787 567.449636 878.145821 579.514659 866.139133L992.454454 455.056015Z"  horiz-adv-x="1025" />

    
    <glyph glyph-name="weizhi" unicode="&#58931;" d="M512.036549 636.756255c-99.340829 0-180.151194-79.202199-180.151194-176.569369 0-97.36717 80.810365-176.569369 180.151194-176.569369 99.30428 0 180.114645 79.202199 180.114645 176.569369C692.151194 557.554056 611.340829 636.756255 512.036549 636.756255zM512.036549 342.461791c-66.227219 0-120.137345 52.7771-120.137345 117.725095 0 64.911447 53.873577 117.725095 120.137345 117.725095 66.19067 0 120.064247-52.813649 120.064247-117.725095C632.100796 395.238891 578.227219 342.461791 512.036549 342.461791zM855.270443 721.038798c-5.628583 7.821537-11.293715 15.460328-17.433987 22.843274-1.388871 1.681265-2.777742 3.325981-4.166613 4.897598-6.396117 7.456045-13.121176 14.583146-20.028982 21.6006-3.399079 3.399079-6.542314 6.505764-9.502802 9.320056-5.628583 5.372738-11.476461 10.489631-17.433987 15.533426-1.90056 1.535068-3.325981 2.704644-3.764572 3.070136-13.084627 9.977942-31.944034 7.67534-42.141271-5.153443-6.907806-8.771817-8.077382-20.13863-3.910768-29.71453 1.790913-4.093515 4.751401-7.748438 8.515972-10.818574 1.42542-1.169576 2.741193-2.485348 4.166613-3.728022 2.302602-1.864011 5.555484-4.78795 9.722097-8.662169 4.824499-4.459007 9.502802-9.027662 14.034907-13.742513 3.654924-3.801121 7.236749-7.638791 10.745476-11.586108 2.777742-3.143234 5.628583-6.24992 8.296677-9.502802 49.88971-60.598637 79.969733-137.571332 79.969733-221.305636 0-170.75804-278.797587-466.075882-357.30535-541.915551-117.578899 115.422493-363.262876 388.262555-363.262876 541.915551 0 194.697791 161.62073 353.175286 360.265839 353.175286 10.964771 0 21.746797-0.694436 32.419174-1.644716C546.502481 835.474462 548.549238 835.328265 550.595995 835.10897c20.723418-2.119856 40.78895-6.24992 60.342792-11.732305 7.054003-2.119856 9.320056-2.814291 16.447157-5.555484 0.548239-0.219295 1.096477-0.109648 1.681265-0.292394 15.021737-4.78795 31.359246 2.3757 37.243673 16.958846 6.030624 15.167934-1.608166 32.236428-17.031945 38.157404-8.442874 3.252882-16.7761 5.957526-25.145876 8.442874-24.232145 7.346397-43.128101 10.124139-66.117571 12.46329-2.3757 0.255845-4.751401 0.438591-7.090552 0.657886-3.252882 0.255845-9.795196 0.621337-9.795196 0.47514-9.685548 0.694436-19.261448 1.46197-29.093193 1.46197-231.758718 0-420.316237-184.866046-420.316237-412.01956 0-221.269087 385.338616-588.186887 401.749224-603.647214 5.73823-5.445836 13.267373-8.296677 20.869615-8.296677 4.532106 0 9.10076 1.023379 13.340472 3.106685C544.455723-116.523539 932.316237 259.421922 932.316237 484.090088 932.316237 572.283399 903.625085 653.934397 855.270443 721.038798z"  horiz-adv-x="1024" />

    
    <glyph glyph-name="chuanzhen" unicode="&#58961;" d="M24.380952 630.113822 902.094615 630.113822C942.428977 630.113822 975.238095 597.096629 975.238095 556.514225L975.238095 116.552845 999.619049 141.00813 853.333333 141.00813 877.714285 116.552845 877.714285 214.373984 877.714285 238.829269 853.333333 238.829269 170.666667 238.829269 146.285714 238.829269 146.285714 214.373984 146.285714 116.552845 170.666667 141.00813 121.955642 141.00813C81.590725 141.00813 48.761905 174.028132 48.761905 214.607725L48.761905 654.569105 24.380952 630.113822 24.380952 630.113822ZM24.380952 679.02439 0 679.02439 0 654.569105 0 214.607725C0 147.045771 54.630068 92.097562 121.955642 92.097562L170.666667 92.097562 195.047619 92.097562 195.047619 116.552845 195.047619 214.373984 170.666667 189.918699 853.333333 189.918699 828.952382 214.373984 828.952382 116.552845 828.952382 92.097562 853.333333 92.097562 999.619049 92.097562 1024 92.097562 1024 116.552845 1024 556.514225C1024 624.07337 969.395277 679.02439 902.094615 679.02439L24.380952 679.02439 24.380952 679.02439ZM755.809523-103.544715 780.190477-79.089431 243.809523-79.089431 268.190477-103.544715 268.190477 119.674797C268.190477 133.181077 257.274752 144.130082 243.809523 144.130082 230.344297 144.130082 219.428572 133.181077 219.428572 119.674797L219.428572-103.544715C219.428572-117.050995 230.344297-128 243.809523-128L780.190477-128C793.655703-128 804.571428-117.050995 804.571428-103.544715L804.571428 119.674797C804.571428 133.181077 793.655703 144.130082 780.190477 144.130082 766.725248 144.130082 755.809523 133.181077 755.809523 119.674797L755.809523-103.544715ZM207.238095 458.926829 524.190477 458.926829 524.190477 507.837397 207.238095 507.837397 207.238095 458.926829 207.238095 458.926829ZM219.428572 654.569105 219.428572 850.211382 195.047619 825.756097 828.952382 825.756097 804.571428 850.211382 804.571428 654.569067 853.333333 654.569067 853.333333 850.211382 853.333333 874.666667 828.952382 874.666667 195.047619 874.666667 170.666667 874.666667 170.666667 850.211382 170.666667 654.569105 219.428572 654.569105 219.428572 654.569105Z"  horiz-adv-x="1024" />

    
    <glyph glyph-name="jiugongge" unicode="&#58929;" d="M142.044078 544.690596 352.550954 544.690596 352.550954 755.196473 142.044078 755.196473 142.044078 544.690596 142.044078 544.690596zM405.188266 544.690596l210.507276 0L615.695542 755.196473l-210.507276 0L405.188266 544.690596 405.188266 544.690596zM668.378224 755.196473l0-210.50188 210.50188 0L878.880103 755.196473 668.378224 755.196473 668.378224 755.196473zM142.044078 281.502837 352.550954 281.502837 352.550954 492.057281 142.044078 492.057281 142.044078 281.502837 142.044078 281.502837zM405.188266 281.502837l210.507276 0L615.695542 492.057281l-210.507276 0L405.188266 281.502837 405.188266 281.502837zM668.378224 281.502837l210.50188 0L878.880103 492.057281 668.378224 492.057281 668.378224 281.502837 668.378224 281.502837zM142.044078 18.362646 352.550954 18.362646 352.550954 228.864526 142.044078 228.864526 142.044078 18.362646 142.044078 18.362646zM405.188266 18.362646l210.507276 0L615.695542 228.864526l-210.507276 0L405.188266 18.362646 405.188266 18.362646zM668.378224 18.362646l210.50188 0L878.880103 228.864526 668.378224 228.864526 668.378224 18.362646 668.378224 18.362646z"  horiz-adv-x="1024" />

    
    <glyph glyph-name="mubiao" unicode="&#58944;" d="M513.485015 529.036416c-80.520786 0-145.861424-65.340638-145.861425-145.861424 0-80.520786 65.340638-145.861424 145.861425-145.861424 80.520786 0 145.861424 65.340638 145.861424 145.861424-0.330003 80.520786-65.670641 145.861424-145.861424 145.861424z m0-225.392201c-43.890429 0-79.530777 35.640348-79.530777 79.530777s35.640348 79.530777 79.530777 79.530777 79.530777-35.640348 79.530776-79.530777-35.640348-79.530777-79.530776-79.530777z m479.494682 112.861102h-35.310345c-3.630035 48.510474-14.850145 95.370931-33.660328 140.25137-22.440219 53.130519-54.450532 100.650983-95.370932 141.571383-40.9204 40.9204-88.440864 72.930712-141.571382 95.370931-44.880438 18.810184-92.070899 30.360296-140.581373 33.660329V862.999678c0 18.150177-14.850145 33.000322-33.000322 33.000322s-33.000322-14.850145-33.000323-33.000322v-35.310345c-48.510474-3.630035-95.370931-14.850145-140.251369-33.660329-53.130519-22.770222-100.980986-54.780535-141.901386-95.700934C157.411537 657.40767 125.401225 609.557203 102.961005 556.756687c-18.810184-44.880438-30.360296-91.740896-33.660328-140.25137H33.000322c-18.150177 0-33.000322-14.850145-33.000322-33.000322s14.850145-33.000322 33.000322-33.000322h36.300355c3.630035-48.510474 14.850145-95.370931 33.660328-140.25137 22.440219-53.130519 54.450532-100.650983 95.370932-141.571382 40.9204-40.9204 88.440864-72.930712 141.571382-95.370932 44.880438-18.810184 91.740896-30.360296 140.25137-33.660328v-33.990332c0-18.150177 14.850145-33.000322 33.000322-33.000323s33.000322 14.850145 33.000323 33.000323V-61.009346c48.510474 3.630035 95.370931 14.850145 140.251369 33.660329 53.130519 22.440219 100.650983 54.450532 141.571383 95.370931 40.9204 40.9204 72.930712 88.440864 95.370931 141.571383 18.810184 44.880438 30.360296 91.740896 33.660329 140.251369h35.310345c18.150177 0 33.000322 14.850145 33.000322 33.000323 0.99001 18.810184-13.860135 33.660329-32.340316 33.660328zM546.485337 5.651305v77.220754c0 18.150177-14.850145 33.000322-33.000322 33.000323s-33.000322-14.850145-33.000323-33.000323v-77.220754c-182.821785 15.840155-329.013213 161.701579-344.853367 344.523365h80.850789c18.150177 0 33.000322 14.850145 33.000322 33.000322s-14.850145 33.000322-33.000322 33.000322H135.631325c15.840155 182.491782 161.701579 328.68321 344.523364 344.523365v-74.580729c0-18.150177 14.850145-33.000322 33.000322-33.000322s33.000322 14.850145 33.000323 33.000322V761.028682C729.307122 745.188527 875.168547 598.9971 891.008701 416.505317h-81.180793c-18.150177 0-33.000322-14.850145-33.000322-33.000322s14.850145-33.000322 33.000322-33.000322H891.008701c-15.840155-183.151789-161.701579-329.013213-344.523364-344.853368z"  horiz-adv-x="1026" />

    
    <glyph glyph-name="bofang" unicode="&#58933;" d="M261.6 795.2L844 464.8c60-34.4 60-119.2 0-153.6L261.6-19.2c-60-34.4-135.2 8.8-135.2 76.8V718.4c0.8 68 75.2 111.2 135.2 76.8z m0 0"  horiz-adv-x="1024" />

    
    <glyph glyph-name="fenxiangfanli" unicode="&#59010;" d="M923.054122 99.595373H500.754667c-22.321724-28.931928-50.030109-52.964564-81.668165-71.119074h503.968644c19.137441 0 34.581727 15.939847 34.581727 35.56568-0.001024 19.612523-15.448382 35.553394-34.582751 35.553394zM394.80199 668.562305h528.252132c19.137441 0 34.581727 15.939847 34.581727 35.55237 0 19.627882-15.447358 35.565681-34.581727 35.565681H394.80199c-18.873278 0-34.344185-15.937799-34.344185-35.565681 0-19.612523 15.470907-35.55237 34.344185-35.55237zM923.054122 632.996624H394.80199c-18.873278 0-34.344185-15.939847-34.344185-35.553394 0-19.625834 15.470907-35.563633 34.344185-35.563633h528.252132c19.137441 0 34.581727 15.937799 34.581727 35.563633 0 19.615595-15.447358 35.553394-34.581727 35.553394zM923.054122 526.313917H419.085478c31.637033-18.1412 59.346441-42.175884 81.668166-71.119075h422.299454c19.137441 0 34.581727 15.939847 34.581727 35.565681 0.001024 19.616619-15.446334 35.553394-34.580703 35.553394zM923.054122 419.643496H524.293791c12.50164-22.081111 21.817972-45.861871 28.190635-71.131361h370.569696c19.137441 0 34.581727 15.950086 34.581727 35.56568 0 19.614571-15.447358 35.565681-34.581727 35.565681zM923.054122 312.960788H559.117155c1.461084-11.769562 2.467564-23.544243 2.467564-35.56568 0-12.010175-1.006479-23.780761-2.467564-35.55237h363.936967c19.137441 0 34.581727 15.937799 34.581727 35.55237 0 19.627882-15.447358 35.565681-34.581727 35.56568zM923.054122 206.279105H552.48545c-6.371638-25.254132-15.687971-49.048203-28.190635-71.119075h398.758283c19.137441 0 34.581727 15.937799 34.581727 35.553394 0.001024 19.625834-15.446334 35.565681-34.580703 35.565681zM545.457501 277.238453c0 137.578447-108.156079 248.918809-241.337962 248.918809-133.423521 0-241.315437-111.340362-241.315437-248.918809s107.891916-248.918809 241.315437-248.918809c133.181884 0 241.337962 111.340362 241.337962 248.918809zM322.623194 141.411874V99.281041h-29.582095v41.047562c-25.864367 2.588382-53.205177 15.137121-71.697569 31.778329l19.22959 29.190971c18.838466-15.528245 39.166685-26.602589 62.459052-26.602589 28.829539 0 42.868031 14.414258 42.868031 38.428464 0 59.886029-114.204169 49.533524-114.204169 128.619451 0 38.429488 24.029565 65.407842 61.345065 71.69757v41.754043h29.582095v-41.378277c26.602589-3.340938 44.342426-16.280801 59.494905-32.170477L359.939719 356.880349c-15.152479 14.414258-27.716576 22.570528-48.781993 22.570529-23.652775 0-38.428464-13.330987-38.428464-35.870799 0-53.957733 114.188811-41.378278 114.188811-127.506487 0-39.542451-23.653799-67.620459-64.294879-74.661718z"  horiz-adv-x="1024" />

    
    <glyph glyph-name="qian" unicode="&#59106;" d="M855.983 849.542h-129.066l-145.118-267.39c-38.701-72.465-62.372-120.629-71.015-144.503h-2.47c-25.531 58.048-97.571 195.341-216.137 411.892h-136.475l253.805-435.975h-208.108v-96.334h243.923v-132.769h-243.923v-97.57h243.923v-193.287h121.034v193.287h235.278v97.57h-235.277v132.769h235.278v96.334h-201.93l256.275 435.975z"  horiz-adv-x="1024" />

    
    <glyph glyph-name="iconfontshuaxin" unicode="&#58880;" d="M674.636 149.036c-49.296-34.976-106.993-52.518-165.99-51.716-7.797 0.087-15.551 0.498-23.218 1.17-3.119 0.302-6.237 0.823-9.4 1.212-6.022 0.823-12.042 1.645-17.89 2.794-3.638 0.694-7.192 1.625-10.743 2.468-5.761 1.364-11.48 2.75-17.109 4.439-2.686 0.844-5.328 1.821-8.014 2.729-6.454 2.186-12.909 4.462-19.189 7.125-1.429 0.584-2.815 1.256-4.202 1.906-7.363 3.27-14.599 6.692-21.615 10.547-0.346 0.174-0.607 0.324-0.952 0.498-23.738 13.189-45.441 29.671-64.498 48.924-0.303 0.304-0.607 0.652-0.909 0.997-5.934 5.998-11.566 12.3-16.936 18.842-1.126 1.408-2.21 2.903-3.337 4.331-38.768 49.098-62.159 111.233-62.159 178.826h65.755c1.689 0 3.335 0.909 4.202 2.513 0.865 1.581 0.738 3.466-0.218 4.872l-110.499 167.825c-0.865 1.299-2.328 2.167-3.997 2.167-1.645 0-3.119-0.865-3.985-2.167l-110.501-167.802c-0.932-1.43-1.083-3.293-0.218-4.895s2.512-2.513 4.202-2.513h65.755c0-79.461 24.473-153.119 66.025-214.020 0.519-0.844 0.865-1.753 1.43-2.599 4.331-6.237 9.097-11.976 13.732-17.867 1.689-2.23 3.335-4.526 5.111-6.714 6.8-8.361 14.035-16.201 21.442-23.888 0.737-0.757 1.386-1.516 2.079-2.187 24.951-25.295 53.149-46.607 83.861-63.629 0.78-0.497 1.559-0.974 2.426-1.429 8.838-4.808 17.933-9.161 27.159-13.277 2.296-0.996 4.505-2.1 6.844-3.097 7.883-3.292 15.984-6.194 24.127-8.965 3.856-1.321 7.668-2.664 11.566-3.876 7.148-2.145 14.425-3.92 21.744-5.696 4.895-1.148 9.704-2.383 14.685-3.337 2.035-0.433 3.985-1.061 6.021-1.386 6.931-1.235 13.862-1.927 20.792-2.795 2.512-0.28 4.982-0.713 7.45-0.996 12.476-1.234 24.863-2.057 37.252-2.057 75.847 0 149.831 23.477 213.292 68.502 20.228 14.379 25.167 42.599 11.002 63.109-14.208 20.532-42.147 25.493-62.376 11.111M885.069 384.128c-0.042 79.222-24.343 152.728-65.711 213.501-0.607 1.040-1.039 2.101-1.689 3.054-5.154 7.429-10.742 14.359-16.331 21.311-0.65 0.844-1.256 1.733-1.948 2.555-37.86 46.497-85.378 82.428-139.264 105.905-1.474 0.651-2.947 1.386-4.418 2.036-8.62 3.574-17.413 6.735-26.25 9.745-3.205 1.061-6.367 2.23-9.617 3.205-7.71 2.361-15.55 4.289-23.435 6.129-4.374 1.017-8.707 2.144-13.125 3.010-2.21 0.433-4.245 1.083-6.412 1.472-5.89 1.040-11.826 1.494-17.715 2.254-4.072 0.519-8.101 1.17-12.217 1.603-9.92 0.93-19.752 1.321-29.585 1.494-1.777 0-3.552 0.281-5.329 0.281-0.303 0-0.607-0.086-0.952-0.108-75.719-0.064-149.572-23.215-212.946-68.178-20.272-14.337-25.209-42.6-11.047-63.109s42.148-25.491 62.376-11.11c48.948 34.717 106.083 52.281 164.648 51.76 8.447-0.064 16.72-0.476 24.907-1.256 2.555-0.303 5.026-0.67 7.537-0.997 6.758-0.823 13.429-1.797 20.013-3.119 2.902-0.563 5.804-1.321 8.62-1.971 6.454-1.472 12.909-3.054 19.233-4.982 1.992-0.651 3.942-1.365 5.933-2.035 7.236-2.383 14.295-4.959 21.269-7.883 0.694-0.303 1.429-0.67 2.123-0.952 41.714-18.17 78.317-46.151 106.863-81.128 0.173-0.218 0.346-0.498 0.519-0.693 40.198-49.531 64.412-112.857 64.412-181.793h-65.755c-1.689 0-3.335-0.909-4.201-2.513-0.865-1.603-0.738-3.466 0.218-4.895l110.544-167.802c0.823-1.299 2.297-2.144 3.986-2.144 1.645 0 3.118 0.844 3.985 2.144l110.458 167.802c0.952 1.43 1.083 3.293 0.218 4.895-0.865 1.603-2.512 2.513-4.201 2.513l-65.712-0.003z"  horiz-adv-x="1024" />

    
    <glyph glyph-name="dizhi" unicode="&#58916;" d="M511.337412 863.111529c-198.535529 0-359.484235-158.870588-359.484236-354.816 0-195.975529 359.484235-582.927059 359.484236-582.927058S870.791529 312.32 870.791529 508.295529c0 195.945412-160.948706 354.785882-359.454117 354.785883z m0-531.395764a171.911529 171.911529 0 1 0 0 343.853176 171.911529 171.911529 0 0 0 0-343.853176z"  horiz-adv-x="1024" />

    
    <glyph glyph-name="yanjing" unicode="&#58894;" d="M515.2 672C208 672 22.4 358.4 22.4 358.4s214.4-304 492.8-304 492.8 304 492.8 304S822.4 672 515.2 672zM832 243.2c-102.4-86.4-211.2-140.8-320-140.8s-217.6 51.2-320 140.8c-35.2 32-70.4 64-99.2 99.2-6.4 6.4-9.6 12.8-16 19.2 3.2 6.4 9.6 12.8 12.8 19.2 25.6 35.2 57.6 70.4 92.8 102.4 99.2 89.6 208 144 329.6 144s230.4-54.4 329.6-144c35.2-32 64-67.2 92.8-102.4 3.2-6.4 9.6-12.8 12.8-19.2-3.2-6.4-9.6-12.8-16-19.2-28.8-32-60.8-67.2-99.2-99.2zM512 550.4c-96 0-169.6-76.8-169.6-169.6 0-96 76.8-169.6 169.6-169.6 96 0 169.6 76.8 169.6 169.6S604.8 550.4 512 550.4z m0-294.4c-67.2 0-121.6 54.4-121.6 121.6 0 67.2 54.4 121.6 121.6 121.6 67.2 0 121.6-54.4 121.6-121.6 0-64-54.4-121.6-121.6-121.6z"  horiz-adv-x="1024" />

    
    <glyph glyph-name="close" unicode="&#58976;" d="M826.289 771.589l-314.289-314.278-314.289 314.278c-16.933 16.933-44.389 16.933-61.321 0-16.933-16.933-16.933-44.387 0-61.318l314.289-314.277-314.289-314.279c-16.933-16.933-16.933-44.387 0-61.318 16.933-16.933 44.389-16.933 61.321 0l314.289 314.277 314.289-314.277c16.933-16.933 44.388-16.933 61.323 0s16.933 44.387 0 61.318l-314.289 314.278 314.289 314.277c16.933 16.933 16.933 44.387 0 61.318-16.934 16.931-44.389 16.931-61.323 0.001z"  horiz-adv-x="1024" />

    
    <glyph glyph-name="dianhua" unicode="&#58899;" d="M144.703113 792.864262l-24.624937-25.323345c-30.320582-31.223697-45.986618-75.921871-45.240043-129.241784 1.758064-131.80663 98.499747-306.974823 252.523007-457.217041 223.647409-218.180552 483.166547-302.459248 590.673362-191.869801l24.588812 25.299263a98.174626 98.174626 0 0 1 27.876151 70.178059 98.295041 98.295041 0 0 1-29.778713 69.359235l-101.064594 98.620163c-38.870071 37.882666-101.365632 37.148132-139.248298-1.87848l-24.600854-25.287221c-26.226461-27.069368-95.441198-15.70216-211.10013 96.994556-98.415456 96.09144-113.647997 152.21703-113.936994 177.10688-0.180623 13.197521 3.528169 23.565282 11.46354 31.681276l24.600854 25.287221c36.678512 37.810416 35.931937 102.834699-1.938687 139.573419l-101.028469 98.559955a97.416009 97.416009 0 0 1-70.02152 27.996566 97.367843 97.367843 0 0 1-69.142487-29.838921z m100.185562-38.316161l101.052552-98.584037c16.268112-15.894825 16.737732-43.927516 0.806783-60.195628L322.159198 570.481215c-18.230882-18.796834-27.79186-43.518103-27.382449-71.550795 0.746575-59.677842 44.830631-132.529122 130.951681-216.506779 177.660791-173.325839 262.132151-124.810499 290.164842-96.067357l24.576771 25.287221a42.482532 42.482532 0 0 0 60.183587 0.806783l100.95622-98.523831c16.352403-15.955032 16.677524-43.975682 0.806782-60.255835L877.888028 28.431567c-82.82167-85.157728-316.957255 3.191006-511.476193 192.869248C224.815438 359.453333 132.348499 523.386775 130.7831 639.045708c-0.529827 38.677407 9.368313 68.733075 29.465633 89.348182l24.540646 25.287221a42.386199 42.386199 0 0 0 29.935253 12.896483 41.904538 41.904538 0 0 0 30.164043-12.029493z"  horiz-adv-x="1024" />

    
    <glyph glyph-name="bofang1" unicode="&#58889;" d="M796.5 436.8c29-16.7 39-53.8 22.2-82.8-5.3-9.2-13-16.9-22.2-22.2l-497-350.4c-29-16.8-66.1-6.8-82.9 22.2-5.3 9.3-8.2 19.8-8.1 30.5l0.6 703.1c-0.1 33.5 27.1 60.7 60.6 60.8 10.7 0 21.2-2.8 30.5-8.1l496.3-353.1z"  horiz-adv-x="1024" />

    
    <glyph glyph-name="yunying" unicode="&#58967;" d="M789.197 546.191L597.472 391.124l-202.8 137.625c-10.021 6.8-23.39 5.887-32.39-2.218l-161.985-145.8c-10.807-9.726-11.682-26.368-1.955-37.175 9.726-10.804 26.37-11.68 37.175-1.954l146.657 132.004 201.892-137.007a26.286 26.286 0 0 1 14.778-4.541 26.296 26.296 0 0 1 16.557 5.857l206.903 167.343c11.303 9.142 13.056 25.715 3.913 37.019-9.142 11.303-25.715 13.058-37.02 3.914zM899.832 756.44h-361.68v39.132c0 14.757-12.078 27.191-26.832 26.91-14.303-0.27-25.815-11.95-25.815-26.318v-39.724h-361.68c-32.967 0-59.692-26.725-59.692-59.692v-491.562c0-32.967 26.725-59.693 59.692-59.693h361.682v-30.017L322.039-8.393c-11.588-8.78-13.863-25.29-5.083-36.878 8.782-11.585 25.29-13.863 36.877-5.082l131.673 99.778s8.552 6.27 16.011 11.432a17.847 17.847 0 0 0 20.411-0.053l16.225-11.378 131.672-99.778a26.205 26.205 0 0 1 15.878-5.344c7.957 0 15.821 3.595 21 10.425 8.78 11.587 6.505 28.098-5.083 36.878L538.153 115.478v30.017h361.68c32.968 0 59.694 26.726 59.694 59.693V696.75c-0.001 32.967-26.727 59.691-59.695 59.691z m7.047-551.252a7.053 7.053 0 0 0-7.047-7.046H123.825a7.054 7.054 0 0 0-7.046 7.046V696.75a7.054 7.054 0 0 0 7.046 7.046h776.008a7.054 7.054 0 0 0 7.047-7.046v-491.56z"  horiz-adv-x="1024" />

    
    <glyph glyph-name="zuobiao" unicode="&#58923;" d="M512 831.906c-206.406 0-375.482-169.09-375.482-375.482 0-154.07 180.702-359.776 284.922-472.273 61.24-66.247 121.106-60.897 181.12-2.988 104.936 109.12 284.922 319.515 284.922 475.261 0 206.392-169.078 375.482-375.481 375.482z m-0.45-555.047c-112.527 0-202.34 89.813-202.34 202.31 0 112.528 89.813 202.34 202.34 202.34 112.528 0 202.34-89.813 202.34-202.34 0.002-112.498-89.812-202.31-202.34-202.31z"  horiz-adv-x="1024" />

    
    <glyph glyph-name="xiajiantou" unicode="&#58963;" d="M539.35616-42.68544l302.35136 301.42976a35.88608 35.88608 0 0 1 10.5984 25.59488 36.25472 36.25472 0 0 1-10.71104 25.80992c-13.14304 13.12256-33.70496 14.4128-48.13312 3.08736l-245.99552-245.16096V784.64c0 19.99872-16.35328 36.28032-36.46464 36.28032s-36.44416-16.2816-36.44416-36.28032v-716.54912l-251.8016 251.09504c-15.0272 7.552-32.37888 5.20704-43.68896-6.06208-6.75328-6.75328-10.45504-15.88224-10.45504-25.71776 0-10.81856 4.35712-21.1456 12.26752-29.06112l20.09088-20.11136 55.37792-55.19872 10.23488-10.4192 216.04864-215.26528c7.168-7.13216 16.98816-10.74688 27.66336-10.21952l0.70656 0.03584 0.72704-0.03584c10.69568-0.52736 20.51584 3.08736 27.62752 10.18368z"  horiz-adv-x="1027" />

    
    <glyph glyph-name="dianhua1" unicode="&#58978;" d="M93.7984 683.4176s-36.864-187.5968 240.5376-464.9984c2.048-2.048 3.9936-3.7888 5.9392-5.8368 1.9456-1.9456 3.7888-3.9936 5.8368-5.9392C623.4112-70.656 811.008-33.792 811.008-33.792c11.4688 1.536 35.6352 8.3968 43.8272 16.5888 0 0 42.7008 35.1232 68.8128 78.336s-23.2448 108.3392-51.712 136.8064c-57.344 57.344-110.1824 68.608-133.4272 52.6336-10.4448-7.168-51.9168-51.9168-51.9168-51.9168-8.192-8.192-24.3712-14.9504-35.9424-15.1552 0 0-72.4992-0.7168-207.4624 132.096-132.8128 134.8608-132.096 207.4624-132.096 207.4624 0.2048 11.5712 6.9632 27.7504 15.1552 35.9424 0 0 51.5072 51.4048 51.9168 51.9168 19.5584 24.4736-12.8 85.1968-52.6336 133.4272-25.6 31.0272-46.2848 49.152-85.0944 56.5248-51.8144 9.8304-144.7936-59.0848-146.6368-117.4528z"  horiz-adv-x="1024" />

    
    <glyph glyph-name="woshou" unicode="&#58924;" d="M889.437091 334.266182a76.613818 76.613818 0 0 0 0-108.078546 77.405091 77.405091 0 0 0-69.306182-20.852363 76.683636 76.683636 0 0 0-20.782545-69.236364 78.056727 78.056727 0 0 0-69.306182-20.805818 76.8 76.8 0 0 0-20.736-69.236364 77.800727 77.800727 0 0 0-69.352727-20.829091 76.8 76.8 0 0 0-20.782546-69.236363 75.636364 75.636364 0 0 0-53.946182-22.411637 75.659636 75.659636 0 0 0-54.016 22.411637l-19.968 19.968a83.642182 83.642182 0 0 0-5.818182-4.514909 69.864727 69.864727 0 0 0-39.68-11.915637c-16.64 0-32.302545 5.329455-44.12509 14.987637a69.026909 69.026909 0 0 0-25.669819 53.969454c0 3.979636 0.325818 7.959273 0.977455 11.869091a70.516364 70.516364 0 0 0-61.067636 19.432727 68.770909 68.770909 0 0 0-19.409455 61.044364 70.935273 70.935273 0 0 0-61.067636 19.409455 69.282909 69.282909 0 0 0-19.386182 61.137454l-2.234182-0.372364a35.84 35.84 0 0 0-3.072-0.418909l-2.164364-0.046545a61.160727 61.160727 0 0 0-4.375272-0.209455 69.213091 69.213091 0 0 0-49.221819 20.433455 69.306182 69.306182 0 0 0-20.363636 49.245091c0 18.571636 7.237818 36.049455 20.363636 49.198545l9.704728 9.704728-42.821818 42.798545A265.774545 265.774545 0 0 0 43.636364 560.872727c0 71.540364 27.764364 138.658909 78.219636 189.090909 50.525091 50.525091 117.666909 78.336 189.090909 78.336s138.589091-27.810909 189.114182-78.336l8.96-8.983272 14.917818 14.941091a266.24 266.24 0 0 0 214.807273 77.102545 267.636364 267.636364 0 0 0 163.421091-77.079273 265.774545 265.774545 0 0 0 78.196363-189.114182c0-71.493818-27.764364-138.635636-78.219636-189.067636l-28.113455-28.136727 15.406546-15.36z m-237.963636-21.154909l2.048 2.071272 58.926545 58.903273 108.381091-108.427636c3.444364-3.444364 8.727273-5.422545 14.522182-5.422546s11.147636 2.001455 14.638545 5.469091a20.549818 20.549818 0 0 1-0.116363 29.021091l-21.364364 21.434182-196.165818 193.070545-92.090182-92.113454a124.625455 124.625455 0 0 0-88.785455-36.770909 124.951273 124.951273 0 0 0-88.832 36.770909 124.765091 124.765091 0 0 0-36.747636 88.785454c0 33.489455 13.056 65.047273 36.747636 88.808728l106.845091 106.775272-8.96 9.029819a210.222545 210.222545 0 0 1-149.643636 61.928727A210.338909 210.338909 0 0 1 161.256727 710.516364c-82.455273-82.501818-82.455273-216.715636 0-299.217455l42.821818-42.845091 53.620364 53.643637a69.003636 69.003636 0 0 0 49.221818 20.410181c18.571636 0 36.072727-7.261091 49.221818-20.410181a69.12 69.12 0 0 0 20.38691-49.198546c0-4.002909-0.325818-7.982545-0.977455-11.822545a70.981818 70.981818 0 0 0 61.067636-19.432728 69.003636 69.003636 0 0 0 19.409455-61.067636 71.051636 71.051636 0 0 0 61.067636-19.432727c13.149091-13.125818 20.386909-30.603636 20.386909-49.198546 0-4.026182-0.349091-8.005818-1.000727-11.845818 3.863273 0.651636 7.842909 0.977455 11.822546 0.977455 18.618182 0 36.096-7.261091 49.24509-20.433455a69.213091 69.213091 0 0 0 17.384728-69.306182l25.716363-25.693091c6.888727-6.912 22.178909-6.912 29.114182 0a20.549818 20.549818 0 0 1-0.023273 29.044364l-108.404363 108.427636 2.048 2.071273 58.926545 58.903273 2.071273-2.048 106.333091-106.333091c6.865455-6.935273 22.132364-6.981818 29.044364 0 3.909818 3.816727 6.050909 8.983273 6.050909 14.475636s-2.094545 10.612364-5.911273 14.452364l-108.427636 108.474182z m-300.078546-204.008728c0-3.677091 1.442909-7.168 4.026182-9.774545 2.304-2.304 5.841455-3.607273 9.751273-3.607273s7.470545 1.326545 9.751272 3.607273l102.772364 102.795636a13.591273 13.591273 0 0 1 4.002909 9.704728 13.661091 13.661091 0 0 1-4.002909 9.751272 13.498182 13.498182 0 0 1-9.774545 4.072728 13.544727 13.544727 0 0 1-9.728-4.049455l-102.795637-102.749091a13.568 13.568 0 0 1-4.002909-9.751273z m-56.971636 70.749091l102.772363 102.795637a13.661091 13.661091 0 0 1 0.023273 19.456 13.637818 13.637818 0 0 1-19.502545 0l-102.772364-102.772364a13.544727 13.544727 0 0 1-4.026182-9.751273c0-3.677091 1.442909-7.144727 4.026182-9.704727 4.584727-4.654545 14.894545-4.631273 19.479273-0.023273z m-103.563637 93.649455l-0.162909-0.698182a14.010182 14.010182 0 0 1 3.770182-12.474182c4.584727-4.631273 14.917818-4.631273 19.502546 0l102.772363 102.795637a13.614545 13.614545 0 0 1-0.023273 19.456 14.056727 14.056727 0 0 1-19.479272 0l-102.516364-102.539637-3.863273-6.539636z m441.483637 314.647273l2.071272-2.071273 198.539637-198.493091 29.719273 29.672727c82.478545 82.501818 82.478545 216.738909-0.023273 299.194182a210.106182 210.106182 0 0 1-149.620364 61.975273 210.385455 210.385455 0 0 1-149.643636-61.975273l-161.233455-161.256727a69.096727 69.096727 0 0 1-20.433454-49.291637c0-18.641455 7.261091-36.142545 20.433454-49.291636 13.149091-13.149091 30.650182-20.410182 49.314909-20.410182s36.142545 7.237818 49.291637 20.363637l131.584 131.584z m-198.306909-566.923637c0.581818-0.930909 1.117091-1.629091 1.815272-2.327272a13.568 13.568 0 0 1 9.751273-3.653819 13.730909 13.730909 0 0 1 9.751273 3.630546l102.749091 102.772363a13.591273 13.591273 0 0 1 4.026182 9.728 13.521455 13.521455 0 0 1-4.026182 9.751273 13.637818 13.637818 0 0 1-19.502546 0l-102.749091-102.749091a13.870545 13.870545 0 0 1-1.815272-17.152z m96.837818-5.841454l19.874909-19.851637c6.912-6.958545 22.202182-6.935273 29.067636-0.023272a20.619636 20.619636 0 0 1 0.046546 29.044363l-19.898182 19.874909-29.090909-29.044363z"  horiz-adv-x="1024" />

    
    <glyph glyph-name="sousuo" unicode="&#58928;" d="M716.665 682.2c-138.85 138.914-364.020 138.914-502.935 0s-138.915-364.085 0-502.936c64.35-64.369 153.259-104.184 251.468-104.184 98.208 0 187.117 39.815 251.467 104.183 64.37 64.351 104.185 153.26 104.185 251.468 0 98.208-39.815 187.117-104.183 251.467zM136.306 101.84c-84.207 84.186-136.291 200.499-136.291 328.977 0 256.913 208.27 465.183 465.183 465.183 256.913 0 465.183-208.27 465.183-465.183 0-128.478-52.085-244.791-136.291-328.976-84.178-84.157-200.457-136.207-328.892-136.207-128.436 0-244.714 52.050-328.892 136.207zM1005.246-109.316c-11.49-11.508-27.373-18.627-44.919-18.627s-33.429 7.119-44.918 18.626l-89.774 89.838c-11.488 11.488-18.593 27.358-18.593 44.887 0 35.059 28.421 63.479 63.479 63.479 17.529 0 33.399-7.105 44.887-18.592l89.837-89.774c11.539-11.476 18.68-27.363 18.68-44.918s-7.141-33.443-18.677-44.916z"  horiz-adv-x="1024" />

    
    <glyph glyph-name="chanpin" unicode="&#58884;" d="M278.410263 769.261908c40.745932 0 78.937641-15.811854 107.763867-44.638081 28.826226-28.826226 44.638081-67.017936 44.63808-107.763867v-152.401948H278.410263c-40.745932 0-78.937641 15.811854-107.763868 44.63808-28.826226 28.826226-44.638081 67.017936-44.63808 107.763868 0 40.745932 15.811854 78.937641 44.63808 107.763867 28.826226 28.826226 67.017936 44.638081 107.763868 44.638081z m0.121629 47.800451C167.848913 817.062359 78.207863 727.421309 78.207863 616.73833c0-110.561349 89.64105-200.324029 200.324029-200.324029h155.19943c24.934078 0 45.124599 20.190521 45.124599 45.124599V616.73833c0 110.682979-89.76268 200.324029-200.324029 200.324029m0.486519-517.534149h149.117947V150.410263c0-39.894524-15.568595-77.356456-43.665043-105.452905-28.218078-28.218078-65.68001-43.665043-105.452904-43.665043-39.894524 0-77.356456 15.568595-105.452904 43.665043-28.218078 28.218078-43.665043 65.68001-43.665044 105.452905 0 39.894524 15.568595 77.356456 43.665044 105.452904 28.096449 28.096449 65.55838 43.665043 105.452904 43.665043z m-0.486519 50.719563c-110.682979 0-200.324029-89.76268-200.324029-200.324029 0-110.561349 89.64105-200.324029 200.324029-200.324029 110.561349 0 200.324029 89.64105 200.324029 200.324029V305.001544c0 24.934078-20.190521 45.124599-45.124599 45.124599H278.531892v0.12163m468.88229 419.743912c40.381043 0 78.329493-15.690224 106.91246-44.273191s44.273192-66.531417 44.273192-106.91246-15.690224-78.329493-44.273192-106.91246-66.531417-44.273192-106.91246-44.273192H596.106901V618.806034c0 40.381043 15.690224 78.329493 44.273192 106.91246s66.531417 44.273192 107.034089 44.273191z m-2.067704 47.070674c-110.561349 0-200.324029-89.64105-200.324029-200.324029v-155.19943c0-24.934078 20.190521-45.124599 45.124599-45.124599h155.19943c110.561349 0 200.324029 89.64105 200.324029 200.324029 0 110.682979-89.64105 200.324029-200.324029 200.324029m0-516.926001c40.137784 0 77.842974-15.690224 106.304312-44.029932 28.339708-28.339708 44.029932-66.166528 44.029932-106.304312 0-40.137784-15.568595-77.842974-44.029932-106.304311-28.339708-28.339708-66.166528-44.029932-106.304312-44.029933-40.137784 0-77.842974 15.568595-106.304311 44.029933-28.339708 28.339708-44.029932 66.166528-44.029933 106.304311V300.136358h150.334244z m0 50.111415H590.268678c-24.934078 0-45.124599-20.190521-45.124599-45.124599v-155.19943c0-110.561349 89.64105-200.324029 200.324029-200.324029 110.561349 0 200.324029 89.64105 200.324029 200.324029-0.12163 110.561349-89.76268 200.324029-200.445659 200.324029m0 0z"  horiz-adv-x="1024" />

    
    <glyph glyph-name="xia" unicode="&#58895;" d="M402.752 749.248l-320-320c-24.992-24.992-24.992-65.504 0-90.496l320-320c24.992-24.992 65.504-24.992 90.496 0s24.992 65.504 0 90.496l-210.752 210.752h613.504c35.36 0 64 28.64 64 64s-28.64 64-64 64h-613.504l210.752 210.752c12.48 12.512 18.752 28.864 18.752 45.248s-6.24 32.768-18.752 45.248c-24.992 24.992-65.504 24.992-90.496 0z"  horiz-adv-x="1024" />

    
    <glyph glyph-name="shizhong1" unicode="&#58934;" d="M735.8 365.2H503.9V595.8c0 15.8-10.7 28.6-26.5 28.6s-26.5-12.8-26.5-28.6V339c0-13.6 7.4-22.9 20.2-25.8 2.5-0.7 5.2-1.1 8-1.1h256.8c15.8 0 28.6 10.7 28.6 26.5-0.1 15.9-12.9 26.6-28.7 26.6zM505.7 773c-220.4 0-399-178.6-399-399s178.6-399 399-399 399 178.6 399 399-178.6 399-399 399z m0-754c-194.9 0-353 158.9-353 355s158 355 353 355 353-158.9 353-355-158-355-353-355z"  horiz-adv-x="1024" />

    
    <glyph glyph-name="zhongduanchoujin" unicode="&#58917;" d="M375.466667 622.933333H102.4a34.133333 34.133333 0 0 1-34.133333-34.133333v-477.866667a34.133333 34.133333 0 0 1 34.133333-34.133333h819.2a34.133333 34.133333 0 0 1 34.133333 34.133333v197.5296a377.4464 377.4464 0 0 1 68.266667 57.309867V76.8a68.266667 68.266667 0 0 0-68.266667-68.266667H68.266667a68.266667 68.266667 0 0 0-68.266667 68.266667V622.933333a68.266667 68.266667 0 0 0 68.266667 68.266667h313.685333A377.856 377.856 0 0 1 375.466667 622.933333zM768-128h-512a17.066667 17.066667 0 0 0-17.066667 17.066667v34.133333a17.066667 17.066667 0 0 0 17.066667 17.066667H477.866667v119.466666a17.066667 17.066667 0 0 0 17.066666 17.066667h34.133334a17.066667 17.066667 0 0 0 17.066666-17.066667V-59.733333h221.866667a17.066667 17.066667 0 0 0 17.066667-17.066667v-34.133333a17.066667 17.066667 0 0 0-17.066667-17.066667zM1022.3616 588.629333a68.164267 68.164267 0 0 1-36.795733-124.484266 297.233067 297.233067 0 0 0-36.5568-51.8144A68.266667 68.266667 0 0 1 853.333333 349.866667c0-2.286933 0.443733-4.471467 0.682667-6.690134-21.981867-10.069333-44.919467-18.397867-69.4272-22.7328A68.061867 68.061867 0 0 1 716.8 384c-33.416533 0-61.1328-24.064-67.003733-55.773867a285.832533 285.832533 0 0 0-73.216 34.542934c2.184533 6.724267 3.6864 13.789867 3.6864 21.230933a68.266667 68.266667 0 0 1-68.266667 68.266667 68.266667 68.266667 0 0 1-20.8896-3.584 290.474667 290.474667 0 0 0-34.338133 73.147733 68.061867 68.061867 0 0 1-7.9872 134.724267 290.747733 290.747733 0 0 0 26.3168 79.735466A67.925333 67.925333 0 0 1 512 725.333333a68.266667 68.266667 0 0 1 68.266667 68.266667c0 17.544533-6.792533 33.3824-17.681067 45.4656a290.816 290.816 0 0 0 56.32 33.143467A68.096 68.096 0 0 1 682.666667 827.733333 68.1984 68.1984 0 0 1 750.7968 894.6688a291.2256 291.2256 0 0 0 71.7824-12.5952A68.3008 68.3008 0 0 1 819.2 861.866667a68.266667 68.266667 0 0 1 116.736-48.0256c13.687467-13.312 26.043733-27.9552 36.932267-43.7248A67.584 67.584 0 0 1 955.733333 725.333333c0-36.010667 27.989333-65.194667 63.351467-67.754666 3.037867-16.827733 4.9152-34.030933 4.9152-51.712 0-5.905067-1.297067-11.434667-1.6384-17.237334zM733.866667 759.466667a153.6 153.6 0 1 1 0-307.2 153.6 153.6 0 0 1 0 307.2z"  horiz-adv-x="1024" />

    
    <glyph glyph-name="aixin" unicode="&#58881;" d="M511.999 682.994c0 0-188.971 152.454-358.888-23.023 0 0-143.215-131.514 29.163-308.51 82.314-84.521 333.7-333.7 333.7-333.7s245.283 243.847 323.798 329.717c56.224 61.491 150.453 217.818 4.668 335.517-0.002-0-183.721 150.409-332.441-0zM800.832 581.692z"  horiz-adv-x="1024" />

    
    <glyph glyph-name="shejian-" unicode="&#58887;" d="M1000.786 682.062c-2.326 7.643-8.971 12.958-16.946 13.955l-122.937 12.957 12.624 118.951c0.997 7.974-3.322 15.616-10.299 19.603-7.308 3.988-15.947 2.99-22.258-1.994l-229.929-187.73c-4.652-3.986-7.643-9.968-7.308-16.281l4.364-121.345-125.791-101.721a48.794 48.794 0 0 1-16.879 2.992c-27.007 0-48.9-21.893-48.9-48.9 0-27.006 21.893-48.9 48.9-48.9s48.9 21.894 48.9 48.9c0 1.216-0.061 2.418-0.147 3.613l130.028 105.149 103.727-15.221c0.994-0.334 1.994-0.334 2.989-0.334 4.65 0 9.302 1.33 12.293 4.654l231.255 190.386c5.981 5.313 8.639 13.62 6.313 21.263zM745.277 506.294l-95.76 14.102c-0.42 0.506-0.852 0.995-1.303 1.461L644.6 633.219l185.073 150.847-9.636-91.039c-0.666-5.315 0.994-10.634 4.319-14.621 3.321-3.988 7.972-6.645 13.289-7.31l95.359-9.969-187.727-154.833zM454.714 94.702a295.875 295.875 0 0 0-34.169 4.841C344.32 114.9 278.638 159.021 235.6 223.778c-43.041 64.757-58.286 142.399-42.928 218.623 15.356 76.224 59.477 141.906 124.235 184.946 64.757 43.04 142.399 58.286 218.623 42.929 15.758-3.175 25.961-18.524 22.785-34.283-3.177-15.758-18.529-25.959-34.283-22.785-125.881 25.36-248.932-56.419-274.293-182.304-25.362-125.884 56.418-248.932 182.304-274.294 125.887-25.359 248.929 56.419 274.292 182.303 3.175 15.759 18.528 25.959 34.282 22.785 15.759-3.175 25.959-18.524 22.785-34.283-15.357-76.224-59.478-141.906-124.234-184.946-55.093-36.618-119.516-53.115-184.454-47.767zM438.762-80.949c-62.889 5.181-122.895 22.53-178.353 51.566-53.554 28.038-100.612 65.734-139.869 112.039-39.258 46.304-68.745 98.896-87.642 156.316C13.326 298.434 6.03 360.471 11.209 423.359c5.181 62.887 22.53 122.894 51.566 178.353 28.038 53.554 65.734 100.612 112.038 139.869 46.305 39.258 98.897 68.745 156.317 87.642 59.461 19.572 121.499 26.868 184.386 21.689 51.137-4.212 100.73-16.591 147.405-36.791 14.755-6.385 21.537-23.521 15.152-38.275-6.384-14.752-23.519-21.535-38.274-15.151-40.837 17.676-84.261 28.509-129.06 32.199C285.814 811.421 87.753 643.505 69.226 418.581 50.701 193.657 218.616-4.405 443.542-22.93c224.924-18.527 422.985 149.391 441.51 374.317 2.994 36.366 1.184 72.814-5.389 108.329-2.922 15.807 7.521 30.992 23.328 33.916 15.803 2.924 30.99-7.52 33.917-23.327 7.505-40.581 9.581-82.199 6.162-123.699-5.181-62.889-22.53-122.895-51.566-178.354-28.038-53.554-65.734-100.612-112.038-139.871-46.305-39.257-98.898-68.745-156.317-87.643-59.463-19.569-121.5-26.865-184.386-21.686z"  horiz-adv-x="1024" />

    
    <glyph glyph-name="guanggao" unicode="&#58930;" d="M1022.485693 875.434615H67.618373a61.606148 61.606148 0 0 1-1.708917 0.021894c-17.668132 0-33.756277-6.769987-45.812351-17.857877-12.250684-11.258174-19.968176-27.379159-20.097105-45.300284l0.003649-610.145345c0.287049-17.910178 8.107929-33.938724 20.424293-45.095943 11.721588-10.785029 27.808517-17.556232 45.476649-17.556232 0.602074 0 1.200499 0.007298 1.798924 0.02311l440.620793-0.001217v-179.566413H237.161168a35.043134 35.043134 0 0 1-0.648293 0.006081c-19.615446 0-35.56858-15.684329-36.006453-35.196389 0-19.469489 16.369112-35.269368 36.724076-35.269367h615.633339c0.214071-0.004865 0.46828-0.007298 0.720056-0.007298 19.617879 0 35.572229 15.686762 36.007669 35.197605-0.434223 19.592336-16.387357 35.277882-36.007669 35.277882-0.251776 0-0.503553-0.002433-0.757761-0.006082h-271.054889V139.523938H1022.479611c0.508418-0.014596 1.106843-0.021894 1.707701-0.021894 17.669349 0 33.757493 6.769987 45.811134 17.859093 12.234872 11.239929 19.947499 27.330506 20.099538 45.22244l-0.007298 610.152643c-0.284617 17.911395-8.107929 33.93994-20.425509 45.098376-11.719156 10.783813-27.806084 17.555016-45.476649 17.555015-0.600858 0-1.201715-0.007298-1.798924-0.024326l0.096089 0.06933z m-5.837076-667.589277H73.454233V804.976156h943.194384v-597.130818zM358.955246 695.857255L231.084479 363.722881h53.938524L316.240839 449.280623h142.751115l31.221485-85.557742h54.403155L416.67893 695.857255h-57.793014 0.06933z m-27.433893-204.728238l55.398097 150.256969h1.85974l54.869002-150.256969h-112.126839z m245.646153 204.728238v-332.134374h119.965963c53.542007 0 93.992859 14.880348 121.892599 44.639827 26.571528 28.827785 39.988654 69.282286 39.988654 121.427968 0 52.477735-13.020608 92.9967-39.059393 120.89644-27.89974 30.291007-68.419922 45.170139-121.892599 45.170139h-120.89644 0.001216z m50.683676-43.3104h60.912851c41.850826 0 72.605248-9.764544 92.135552-29.758263 18.59861-19.527872 28.364371-50.219045 28.364371-92.9967 0-41.850826-9.76576-72.604031-28.830218-92.59775-19.527872-19.994935-50.681243-30.225326-92.596534-30.225327h-59.915476V652.549288l-0.070546-0.002433z"  horiz-adv-x="1090" />

    
    <glyph glyph-name="peixun" unicode="&#59002;" d="M261.219556 544.284444c25.400889-77.070222 94.848-77.070222 120.248888 0 8.462222 5.148444 16.924444 17.137778 18.631112 27.420445 1.692444 11.989333 0 25.685333-10.168889 25.685333-1.692444 35.982222-22.016 66.816-66.048 66.816s-66.048-25.699556-67.754667-66.816c-11.847111 0-11.847111-15.402667-10.154667-25.685333-1.706667-10.282667 6.769778-22.272 15.246223-27.406222zM422.115556 104.106667v27.406222c28.8 0 52.508444 23.978667 52.508444 53.091555v1.706667l204.942222 207.260445c5.077333 5.148444 5.077333 15.416889 0 20.565333-5.091556 5.134222-15.260444 5.134222-20.337778 0L474.624 225.706667V402.133333c0 37.688889-27.107556 71.936-66.062222 80.497778l-28.785778 5.134222-59.278222-118.186666-59.278222 118.186666-28.8-5.12c-38.954667-8.576-66.048-41.116444-66.048-80.512v-219.249777c0-29.127111 23.708444-53.105778 52.508444-53.105778v-27.406222h203.235556v1.706666zM0.384 289.080889c0-82.218667 66.062222-147.313778 145.664-147.313778h1.692444c-6.769778 11.989333-11.861333 25.699556-11.861333 42.823111v20.551111c-40.647111 5.148444-72.817778 41.102222-72.817778 83.939556V691.598222c0 46.250667 37.262222 85.646222 84.679111 85.646222H847.217778c45.724444 0 84.679111-37.688889 84.679111-85.646222v-402.517333c0-46.250667-37.262222-85.646222-84.679111-85.646222H535.594667l-30.492445-30.833778c-1.692444-11.989333-6.769778-22.272-11.847111-30.833778h352.284445c81.294222 0 145.649778 66.801778 145.649777 147.313778V691.598222c0 82.218667-66.048 147.313778-145.649777 147.313778H146.048C66.446222 838.912 0.384 772.124444 0.384 691.598222v-402.517333z m204.942222-236.373333H96.924444c-52.494222 0-96.540444-42.823111-96.540444-97.635556v-35.982222h301.482667v35.982222c0 53.091556-44.032 97.635556-96.540445 97.635556z m347.207111 0h-108.401777c-52.508444 0-96.540444-42.823111-96.540445-97.635556v-35.982222h301.482667v35.982222c0 53.091556-44.046222 97.635556-96.540445 97.635556z m347.207111 0H791.324444c-52.508444 0-96.540444-42.823111-96.540444-97.635556v-35.982222h301.482667v35.982222c-1.706667 53.091556-44.046222 97.635556-96.540445 97.635556z"  horiz-adv-x="1024" />

    
    <glyph glyph-name="kaiye" unicode="&#59004;" d="M1017.116444 492.174222c-17.464889 64-37.219556 128.597333-56.277333 191.132445-8.163556 26.922667-16.440889 53.859556-24.504889 80.910222l-1.365333 4.551111H86.229333l-1.365333-4.551111c-8.277333-27.733333-16.910222-55.239111-25.415111-82.844445C40.277333 619.747556 20.309333 555.946667 4.551111 492.288c-11.363556-45.994667 0.554667-93.013333 32.995556-128.839111 33.820444-37.432889 83.399111-55.466667 132.864-47.928889 38.229333 5.703111 70.684444 24.988444 98.816 58.766222 31.658667-40.391111 72.391111-60.814222 121.173333-60.814222h0.568889c47.644444 0.113778 88.718222 20.878222 119.239111 60.245333 32-37.888 75.448889-59.562667 120.490667-59.790222h0.896c45.511111 0 88.277333 21.105778 121.400889 59.790222 0.910222-1.024 1.820444-2.048 2.602666-2.972444 4.992-5.688889 9.656889-10.951111 14.648889-15.857778 46.279111-45.297778 118.784-54.200889 176.184889-21.788444 56.391111 31.715556 86.798222 100.067556 70.684444 159.075555zM127.402667 706.474667c2.616889 9.358222 6.584889 9.699556 17.479111 9.358222 1.592889 0 3.057778-0.113778 4.650666-0.113778h338.773334l183.68-0.113778c67.740444-0.113778 137.628444-0.227556 206.492444 0.455111h0.910222c14.506667 0 19.171556-3.541333 23.025778-17.464888 9.756444-35.271111 20.423111-70.869333 30.748445-105.329778 9.756444-32.625778 19.854222-66.417778 29.155555-99.84 7.708444-27.733333 4.764444-55.580444-8.391111-78.506667a90.837333 90.837333 0 0 0-56.732444-42.908444c-24.618667-6.4-48.440889-3.2-69.091556 9.244444-22.357333 13.454222-38.570667 36.849778-45.610667 65.848889a420.167111 420.167111 0 0 1-3.512888 13.795556l-3.527112 13.582222h-45.596444v-6.499556c-0.227556-52.835556-28.828444-90.040889-74.766222-97.123555-58.097778-9.002667-88.277333 16.896-115.498667 98.830222l-1.479111 4.451555h-44.017778l-1.137778-5.020444c-16.682667-69.959111-44.017778-98.944-94.279111-100.081778h-2.944c-49.237333 0-78.065778 30.008889-96 99.84l-1.237333 4.920889h-46.848l-2.844444-13.354667c-1.137778-5.589333-2.375111-11.52-3.740445-17.464888-5.560889-25.443556-20.081778-46.791111-40.732444-59.904-20.764444-13.226667-46.179556-17.351111-71.708445-11.52-24.277333 5.589333-45.824 21.333333-59.107555 43.363555-12.814222 21.333333-16.440889 45.752889-10.325334 68.920889 12.145778 45.525333 25.884444 91.52 39.04 136.021333 8.391111 28.984889 17.009778 57.742222 25.173334 86.613334z m788.622222-422.784v7.751111l-57.400889-10.268445v-78.392889c0-61.724444 0-123.477333-0.113778-185.201777 0-26.026667-4.551111-30.705778-29.838222-30.705778-213.859556-0.227556-427.719111-0.113778-641.592889 0-25.173333 0-29.952 4.906667-30.051555 30.478222-0.227556 55.907556-0.113778 111.829333-0.113778 167.736889v101.560889l-57.301334 3.768889v-6.968889c0-27.491556-0.113778-54.755556-0.227555-82.033778-0.227556-65.052444-0.455111-132.380444 0.796444-198.215111 0.796444-43.591111 34.602667-74.069333 82.019556-74.183111 109.596444-0.113778 219.093333-0.227556 328.576-0.227556 106.865778 0 213.859556 0.113778 320.725333 0.227556 51.057778 0 82.375111 29.098667 83.726222 77.710222 1.706667 65.052444 1.365333 131.456 1.024 195.598222-0.113778 27.036444-0.227556 54.186667-0.227555 81.351111zM123.448889 794.908444c8.064-4.110222 17.479111-3.882667 26.552889-3.541333 2.275556 0.113778 4.878222-0.113778 6.584889 0.113778 94.506667-0.113778 188.899556-0.113778 283.406222-0.113778h129.223111c95.758222 0 191.616 0 287.374222 0.113778 2.275556 0 4.551111-0.113778 6.926222-0.227556 2.602667-0.113778 5.219556-0.227556 7.708445-0.227555 5.560889 0 11.008 0.568889 16 2.972444 8.277333 3.982222 20.878222 15.175111 21.333333 26.353778 0.455111 11.192889-10.439111 23.509333-18.389333 28.643556-6.570667 4.337778-15.416889 3.982222-23.025778 3.655111-1.820444-0.113778-3.740444-0.113778-5.447111-0.113778a736724.622222 736724.622222 0 0 1-710.215111 0c-1.820444 0-3.640889 0.113778-5.560889 0.113778-7.495111 0.341333-15.886222 0.568889-22.698667-3.2-7.936-4.451556-18.716444-16.085333-18.147555-26.353778 0.455111-10.268444 8.846222-23.281778 18.375111-28.188445z"  horiz-adv-x="1024" />

    
    <glyph glyph-name="liangfangsheji" unicode="&#58910;" d="M253.862313 642.112616H82.210885V813.788603h171.651428v-171.675987z m-147.092079 24.559348h122.532731V789.229255H106.770234v-122.557291zM941.788092 642.112616H770.136663V813.788603h171.651429v-171.675987z m-147.09208 24.559348h122.532731V789.229255H794.696012v-122.557291zM253.862313-45.788603H82.210885V125.839289h171.651428v-171.627892z m-147.092079 24.559348h122.532731V101.27994H106.770234v-122.509195zM941.788092-45.788603H770.136663V125.839289h171.651429v-171.627892z m-147.09208 24.559348h122.532731V101.27994H794.696012v-122.509195zM778.674107 715.670935H241.582639c-6.78759 0-12.279674 5.492084-12.279674 12.279674s5.492084 12.279674 12.279674 12.279675h537.091468c6.78759 0 12.279674-5.492084 12.279674-12.279675s-5.492084-12.279674-12.279674-12.279674zM168.048879 107.323587c-6.78759 0-12.279674 5.492084-12.279675 12.279674V652.137946c0 6.78759 5.492084 12.279674 12.279675 12.279675s12.279674-5.492084 12.279674-12.279675v-532.534685c0-6.78759-5.493108-12.279674-12.279674-12.279674zM777.139148 27.769716H241.582639c-6.78759 0-12.279674 5.492084-12.279674 12.279675s5.492084 12.279674 12.279674 12.279674h535.556509c6.78759 0 12.279674-5.492084 12.279674-12.279674s-5.492084-12.279674-12.279674-12.279675zM855.973634 107.347123c-6.78759 0-12.279674 5.492084-12.279675 12.279674V654.39229c0 6.78759 5.492084 12.279674 12.279675 12.279674s12.279674-5.492084 12.279674-12.279674v-534.765493c0-6.786567-5.492084-12.279674-12.279674-12.279674zM643.645784 121.161756L239.232105 525.5519l137.307225 137.307226 404.390144-404.390144-137.28369-137.307226z m-369.684714 404.390144L643.645784 155.890722l102.554724 102.57826L376.53933 628.13016 273.96107 525.5519zM319.265906 450.626443c-3.14155 0-6.284123 1.199315-8.68173 3.597945-4.797259 4.797259-4.797259 12.567223 0 17.364483l36.095079 36.095079c4.797259 4.797259 12.567223 4.797259 17.364483 0s4.797259-12.567223 0-17.364483l-36.095079-36.095079a12.241812 12.241812 0 0 0-8.682753-3.597945zM373.444852 396.423961c-3.14155 0-6.284123 1.199315-8.681729 3.597944-4.797259 4.797259-4.797259 12.579503 0 17.364483l36.119638 36.09508c4.797259 4.797259 12.567223 4.797259 17.364483 0s4.797259-12.579503 0-17.364483l-36.119639-36.09508a12.235672 12.235672 0 0 0-8.682753-3.597944zM427.672918 342.220455c-3.14155 0-6.284123 1.199315-8.68173 3.597944-4.797259 4.797259-4.797259 12.567223 0 17.364483l36.09508 36.09508c4.797259 4.797259 12.567223 4.797259 17.364482 0s4.797259-12.567223 0-17.364483l-36.095079-36.09508a12.243859 12.243859 0 0 0-8.682753-3.597944zM481.8754 288.016949c-3.14155 0-6.284123 1.199315-8.681729 3.597944-4.797259 4.797259-4.797259 12.567223 0 17.364483l36.095079 36.09508c4.797259 4.797259 12.567223 4.797259 17.364483 0s4.797259-12.567223 0-17.364483l-36.095079-36.09508a12.239765 12.239765 0 0 0-8.682754-3.597944zM536.078907 233.813442c-3.14155 0-6.284123 1.199315-8.68173 3.597945-4.797259 4.797259-4.797259 12.567223 0 17.364483l36.095079 36.095079c4.797259 4.797259 12.567223 4.797259 17.364483 0s4.797259-12.567223 0-17.364482L544.760636 237.411387a12.237719 12.237719 0 0 0-8.681729-3.597945zM590.282413 179.61096c-3.14155 0-6.284123 1.199315-8.68173 3.597944-4.797259 4.797259-4.797259 12.567223 0 17.364483l36.095079 36.09508c4.797259 4.797259 12.567223 4.797259 17.364483 0s4.797259-12.567223 0-17.364483l-36.095079-36.09508a12.238742 12.238742 0 0 0-8.682753-3.597944z"  horiz-adv-x="1024" />

    
    <glyph glyph-name="jingying" unicode="&#58911;" d="M973.523696 561.39684c0 1.581185 0 1.581185 0 0 0 3.162371-1.581185 4.621927-1.581185 6.203112l-81.005345 188.404324c-13.987409 38.921487-52.908897 62.274379-99.614681 62.274379H232.434256c-46.705785 0-84.046086-23.352892-96.57394-60.693194L50.354674 566.018767c0-1.581185-1.581185-3.162371-1.581185-4.621927-6.203112-18.730966-9.365483-37.340302-9.365483-56.071267 0-65.43675 37.340302-126.129944 99.614681-155.685948 24.934078-12.406224 54.490082-18.730966 88.789642-18.730966 56.071267 0 107.398979 23.352892 143.279725 63.855565 35.759116-38.921487 85.627272-62.274379 141.698539-62.27438 54.490082 0 105.817793 23.352892 141.698539 62.27438 35.759116-40.502673 87.208457-62.274379 143.279724-62.27438 34.299561 0 63.855565 6.203112 88.789643 20.190522 60.693194 31.13719 98.033496 90.249198 98.033495 155.685948-1.702815 17.27141-4.865186 35.880746-11.068298 53.030526m-121.386388-155.685948c-15.568595-7.784297-34.299561-12.406224-57.652452-12.406224-42.083858 0-79.42416 20.190521-101.195867 52.908897-1.581185 3.162371-4.621927 7.784297-9.365483 13.987409-6.203112 6.203112-15.568595 12.406224-32.718375 12.406224-13.987409 0-26.515263-4.621927-32.718375-12.406224-4.621927-4.621927-7.784297-9.365483-9.365483-12.406224-21.771707-32.718375-59.112009-52.908897-99.614681-52.908897s-77.842974 20.190521-101.195866 52.908897c-1.581185 3.162371-4.621927 7.784297-7.784298 12.406224-15.568595 18.730966-51.327711 17.14978-65.43675 1.581185-4.621927-4.621927-7.784297-10.946668-9.365483-13.987409-21.771707-32.718375-59.112009-52.908897-101.195866-52.908897-21.771707 0-40.502673 3.162371-56.071268 10.946669-38.921487 20.190521-63.855565 57.652453-63.855564 99.614681 0 12.406224 1.581185 24.934078 6.203112 37.340301 0 1.581185 0 1.581185 1.581185 3.162371L196.67514 734.232569c1.581185 4.621927 6.203112 18.730966 32.718375 18.730966h558.888229c10.946668 0 29.556004-3.162371 35.759116-20.190522l79.42416-185.241952c0-1.581185 0-3.162371 1.581185-3.162371 4.621927-12.406224 6.203112-24.934078 6.203112-35.759116 3.162371-46.827414-20.190521-84.167716-59.112009-102.898682M520.45326 18.077206H184.147286c-10.946668 0-18.730966 9.365483-18.730966 18.730966V223.50968c0 18.730966-15.568595 34.299561-34.29956 34.299561-18.730966 0-34.299561-15.568595-34.299561-34.299561v-186.823138c0-49.868155 38.921487-88.789642 87.208457-88.789642h336.305975v70.180306z m256.881815 540.157264h-544.900819c-18.730966 0-34.299561 15.568595-34.299561 34.29956 0 18.730966 15.568595 34.299561 34.299561 34.299561h543.319634c18.730966 0 34.299561-15.568595 34.299561-34.299561 0-18.730966-13.987409-34.299561-32.718376-34.29956m0-51.327711M802.269153 186.169379c-35.759116 0-65.43675-29.556004-65.43675-66.896306s29.556004-66.896306 65.43675-66.896306c35.759116 0 65.43675 29.556004 65.43675 66.896306s-29.677634 66.896306-65.43675 66.896306z m0-99.614681c-17.14978 0-31.13719 13.987409-31.13719 32.718375 0 17.14978 13.987409 32.718375 31.13719 32.718375 17.14978 0 31.13719-13.987409 31.13719-32.718375 1.581185-17.14978-13.987409-32.718375-31.13719-32.718375z m172.835729 68.477491c-3.162371 13.987409-10.946668 21.771707-21.771707 21.771707h-1.581185c-20.190521 0-37.340302 17.14978-37.340302 37.340302 0 6.203112 3.162371 12.406224 3.162371 13.987409 4.621927 10.946668 1.581185 26.515263-9.365483 34.299561l-43.543414 24.934077c-3.162371 1.581185-7.784297 1.581185-10.946668 1.581186-7.784297 0-15.568595-3.162371-20.190522-9.365483-4.621927-6.203112-20.190521-17.14978-29.556004-17.14978s-24.934078 12.406224-29.556004 17.14978c-4.621927 6.203112-12.406224 9.365483-20.190522 9.365483-3.162371 0-7.784297 0-10.946668-1.581186h-1.581185l-43.543414-24.934077h-1.581185c-10.946668-7.784297-13.987409-21.771707-9.365483-32.718376 0-1.581185 3.162371-7.784297 3.162371-13.987409 0-20.190521-17.14978-37.340302-37.340302-37.340302H651.205131c-10.946668 0-18.730966-9.365483-21.771707-21.771706 0-1.581185-3.162371-20.190521-3.16237-35.759117s3.162371-32.718375 3.16237-35.759116c3.162371-13.987409 10.946668-21.771707 21.771707-21.771707h3.162371c20.190521 0 37.340302-17.14978 37.340302-37.340302 0-6.203112-3.162371-12.406224-3.162371-13.987409-4.621927-10.946668-1.581185-26.515263 9.365483-34.299561l42.083858-24.934077c3.162371-1.581185 7.784297-1.581185 10.946668-1.581186 7.784297 0 15.568595 3.162371 20.190521 9.365483 4.621927 6.203112 20.190521 18.730966 29.556005 18.730966 10.946668 0 24.934078-12.406224 31.137189-18.730966 4.621927-6.203112 12.406224-9.365483 21.771707-9.365483 3.162371 0 7.784297 0 12.406224 3.162371l43.543414 24.934078h1.581185c10.946668 7.784297 13.987409 21.771707 9.365483 32.718375 0 1.581185-3.162371 7.784297-3.162371 13.987409 0 20.190521 17.14978 37.340302 37.340302 37.340302h1.581185c10.946668 0 18.730966 9.365483 21.771707 21.771707 0 0 3.162371 20.190521 3.162371 35.759116-1.459556 12.406224-6.081482 31.13719-6.081482 34.177931z m-49.868156-56.071267c-29.556004-4.621927-52.908897-31.13719-52.908896-62.27438 0-7.784297 1.581185-13.987409 3.162371-18.730965l-26.515263-15.568595c-3.162371 3.162371-6.203112 6.203112-10.946669 9.365483-12.406224 9.365483-23.352892 13.987409-34.29956 13.987409s-21.771707-4.621927-34.299561-13.987409c-4.621927-3.162371-7.784297-7.784297-10.946668-9.365483l-26.515263 13.987409c1.581185 4.621927 3.162371 12.406224 3.162371 18.730966 0 31.13719-23.352892 59.112009-52.908897 62.274379-1.581185 4.621927-1.581185 13.987409-1.581185 20.190522s1.581185 15.568595 1.581185 20.190521c29.556004 4.621927 52.908897 31.13719 52.908897 62.27438 0 7.784297-1.581185 13.987409-3.162371 18.730965l27.974819 15.568595c3.162371-1.581185 6.203112-6.203112 10.946668-9.365483 12.406224-7.784297 23.352892-12.406224 34.299561-12.406224s21.771707 4.621927 32.718375 12.406224c4.621927 3.162371 7.784297 6.203112 10.946668 9.365483l26.515263-15.568595c-1.581185-4.621927-3.162371-12.406224-3.162371-18.730965 0-31.13719 23.352892-59.112009 52.908897-62.27438 1.581185-4.621927 1.581185-13.987409 1.581185-20.190521 0.12163-4.500297-1.459556-13.86578-1.459556-18.609336z"  horiz-adv-x="1024" />

    
    </font>
</defs>
</svg>
